<mxfile host="app.diagrams.net" agent="Mozilla/5.0 (Macintosh; Intel Mac OS X 10_15_7) AppleWebKit/605.1.15 (KHTML, like Gecko) Version/18.5 Safari/605.1.15" version="28.0.7">
  <diagram name="Seite-1" id="fzUndpXDee4B_MUHt3Ly">
    <mxGraphModel dx="1585" dy="598" grid="1" gridSize="10" guides="1" tooltips="1" connect="1" arrows="1" fold="1" page="1" pageScale="1" pageWidth="827" pageHeight="1169" background="light-dark(#FFFFFF,#FFFFFF)" math="0" shadow="0">
      <root>
        <mxCell id="0" />
        <mxCell id="1" parent="0" />
        <mxCell id="I5uU8x75WuUFm9Wus-JH-187" value="Pool" style="swimlane;childLayout=stackLayout;resizeParent=1;resizeParentMax=0;startSize=20;html=1;strokeColor=light-dark(#000000,#000000);strokeWidth=4;fillColor=light-dark(#FFFFFF,#FFFFFF);fontSize=19;" vertex="1" parent="1">
          <mxGeometry x="-400" y="30" width="1320" height="780" as="geometry" />
        </mxCell>
        <mxCell id="I5uU8x75WuUFm9Wus-JH-188" value="&lt;span style=&quot;color: light-dark(rgb(0, 0, 0), rgb(0, 0, 0));&quot;&gt;Procesamiento de datos&lt;/span&gt;" style="swimlane;startSize=20;html=1;fillColor=light-dark(#FFFFFF,#FFFFFF);strokeColor=light-dark(#000000,#000000);" vertex="1" parent="I5uU8x75WuUFm9Wus-JH-187">
          <mxGeometry y="20" width="380" height="760" as="geometry" />
        </mxCell>
        <mxCell id="I5uU8x75WuUFm9Wus-JH-290" value="&lt;span style=&quot;caret-color: rgb(0, 0, 0); color: light-dark(rgb(0, 0, 0), rgb(0, 0, 0));&quot;&gt;Extracción de datos&lt;/span&gt;" style="rounded=1;whiteSpace=wrap;html=1;fillColor=light-dark(#FFFFFF,#FFFFFF);strokeColor=light-dark(#000000,#000000);strokeWidth=2;" vertex="1" parent="I5uU8x75WuUFm9Wus-JH-188">
          <mxGeometry x="110" y="50" width="120" height="30" as="geometry" />
        </mxCell>
        <mxCell id="I5uU8x75WuUFm9Wus-JH-190" value="&lt;font&gt;&lt;span style=&quot;caret-color: rgb(0, 0, 0); color: light-dark(rgb(0, 0, 0), rgb(0, 0, 0));&quot;&gt;Modelo de Simulación&lt;/span&gt;&lt;/font&gt;" style="swimlane;startSize=20;html=1;fillColor=light-dark(#FFFFFF,#FFFFFF);strokeColor=light-dark(#000000,#000000);fontSize=18;" vertex="1" parent="I5uU8x75WuUFm9Wus-JH-187">
          <mxGeometry x="380" y="20" width="940" height="760" as="geometry" />
        </mxCell>
        <mxCell id="I5uU8x75WuUFm9Wus-JH-280" value="" style="group" vertex="1" connectable="0" parent="I5uU8x75WuUFm9Wus-JH-190">
          <mxGeometry x="40" y="40" width="880" height="692" as="geometry" />
        </mxCell>
        <mxCell id="I5uU8x75WuUFm9Wus-JH-278" value="" style="group" vertex="1" connectable="0" parent="I5uU8x75WuUFm9Wus-JH-280">
          <mxGeometry y="126" width="880" height="566" as="geometry" />
        </mxCell>
        <mxCell id="I5uU8x75WuUFm9Wus-JH-211" value="&lt;font style=&quot;font-size: 19px;&quot;&gt;Modelo en la atención en la sección de efectivo Bogotá&lt;/font&gt;" style="swimlane;horizontal=0;whiteSpace=wrap;html=1;fontColor=light-dark(#000000,#000000);fillColor=light-dark(#FFFFFF,#FFFFFF);strokeColor=light-dark(#000000,#000000);startSize=100;swimlaneFillColor=light-dark(#000000,#FFFFFF);" vertex="1" parent="I5uU8x75WuUFm9Wus-JH-278">
          <mxGeometry y="110" width="880" height="150" as="geometry" />
        </mxCell>
        <mxCell id="I5uU8x75WuUFm9Wus-JH-212" value="&lt;span style=&quot;color: light-dark(rgb(0, 0, 0), rgb(0, 0, 0));&quot;&gt;Atributos&lt;/span&gt;" style="swimlane;fontStyle=0;childLayout=stackLayout;horizontal=1;startSize=30;horizontalStack=0;resizeParent=1;resizeParentMax=0;resizeLast=0;collapsible=1;marginBottom=0;whiteSpace=wrap;html=1;fontColor=light-dark(#000000,#FFFFFF);fillColor=light-dark(#FFFFFF,#FFFFFF);strokeColor=light-dark(#000000,#000000);fontSize=19;" vertex="1" parent="I5uU8x75WuUFm9Wus-JH-211">
          <mxGeometry x="695" y="15" width="150" height="130" as="geometry" />
        </mxCell>
        <mxCell id="I5uU8x75WuUFm9Wus-JH-213" value="&lt;span style=&quot;color: light-dark(rgb(0, 0, 0), rgb(0, 0, 0));&quot;&gt;&lt;font style=&quot;font-size: 15px;&quot;&gt;&lt;b&gt;# Cajeros (G1, G2, G3, G4)&lt;/b&gt;&lt;/font&gt;&lt;/span&gt;&lt;div&gt;&lt;font color=&quot;#000000&quot;&gt;&lt;span style=&quot;caret-color: rgb(0, 0, 0); font-size: 15px;&quot;&gt;&lt;b&gt;&lt;br&gt;&lt;/b&gt;&lt;/span&gt;&lt;/font&gt;&lt;div&gt;&lt;span style=&quot;color: light-dark(rgb(0, 0, 0), rgb(0, 0, 0));&quot;&gt;&lt;font style=&quot;font-size: 15px;&quot;&gt;Tiempos de servicios&lt;/font&gt;&lt;/span&gt;&lt;/div&gt;&lt;/div&gt;" style="text;strokeColor=none;fillColor=none;align=left;verticalAlign=middle;spacingLeft=4;spacingRight=4;overflow=hidden;points=[[0,0.5],[1,0.5]];portConstraint=eastwest;rotatable=0;whiteSpace=wrap;html=1;" vertex="1" parent="I5uU8x75WuUFm9Wus-JH-212">
          <mxGeometry y="30" width="150" height="100" as="geometry" />
        </mxCell>
        <mxCell id="I5uU8x75WuUFm9Wus-JH-214" value="&lt;div style=&quot;line-height: 50%;&quot;&gt;&lt;font style=&quot;line-height: 50%; font-size: 10px;&quot;&gt;&lt;i&gt;&lt;font&gt;Distribución de usuarios&lt;/font&gt;&amp;nbsp;&lt;/i&gt;&lt;/font&gt;&lt;div style=&quot;padding-top: 0px;&quot;&gt;&lt;font style=&quot;line-height: 50%; font-size: 10px;&quot;&gt;&lt;i&gt;&lt;font&gt;(probabilidad&amp;nbsp;&lt;/font&gt;&lt;/i&gt;&lt;i&gt;&lt;font&gt;empíricas)&lt;/font&gt;&lt;/i&gt;&lt;/font&gt;&lt;/div&gt;&lt;/div&gt;" style="text;html=1;align=center;verticalAlign=middle;whiteSpace=wrap;rounded=0;fontColor=light-dark(#000000,#000000);fontSize=24;container=0;" vertex="1" parent="I5uU8x75WuUFm9Wus-JH-211">
          <mxGeometry x="420" y="4" width="200" height="14" as="geometry" />
        </mxCell>
        <mxCell id="I5uU8x75WuUFm9Wus-JH-229" style="edgeStyle=none;curved=0;rounded=0;orthogonalLoop=1;jettySize=auto;html=1;exitX=0.5;exitY=1;exitDx=0;exitDy=0;entryX=0.5;entryY=0;entryDx=0;entryDy=0;fontSize=12;startSize=8;endSize=8;strokeColor=light-dark(#000000,#000000);strokeWidth=1;" edge="1" parent="I5uU8x75WuUFm9Wus-JH-278" source="I5uU8x75WuUFm9Wus-JH-230" target="I5uU8x75WuUFm9Wus-JH-260">
          <mxGeometry relative="1" as="geometry">
            <Array as="points">
              <mxPoint x="435" y="244" />
              <mxPoint x="530" y="244" />
            </Array>
          </mxGeometry>
        </mxCell>
        <mxCell id="I5uU8x75WuUFm9Wus-JH-230" value="Servicios moneda" style="whiteSpace=wrap;html=1;fontSize=19;fontColor=light-dark(#000000,#000000);fillColor=light-dark(#FFFFFF,#FFFFFF);strokeColor=light-dark(#000000,#0000FF);container=0;" vertex="1" parent="I5uU8x75WuUFm9Wus-JH-278">
          <mxGeometry x="360" y="160" width="150" height="40" as="geometry" />
        </mxCell>
        <mxCell id="I5uU8x75WuUFm9Wus-JH-231" value="" style="strokeWidth=3;html=1;shape=mxgraph.flowchart.annotation_2;align=left;labelPosition=right;pointerEvents=1;strokeColor=light-dark(#000000,#FF9933);direction=west;container=0;" vertex="1" parent="I5uU8x75WuUFm9Wus-JH-278">
          <mxGeometry x="681" width="30" height="50" as="geometry" />
        </mxCell>
        <mxCell id="I5uU8x75WuUFm9Wus-JH-232" value="Franjas de servicio" style="text;html=1;align=center;verticalAlign=middle;whiteSpace=wrap;rounded=0;fontColor=light-dark(#000000,#000000);fontSize=24;" vertex="1" parent="I5uU8x75WuUFm9Wus-JH-278">
          <mxGeometry x="700" y="10" width="140" height="30" as="geometry" />
        </mxCell>
        <mxCell id="I5uU8x75WuUFm9Wus-JH-233" value="Servicios billete" style="whiteSpace=wrap;html=1;fontSize=19;fontColor=light-dark(#000000,#000000);fillColor=light-dark(#FFFFFF,#FFFFFF);strokeColor=light-dark(#000000,#00CC00);container=0;" vertex="1" parent="I5uU8x75WuUFm9Wus-JH-278">
          <mxGeometry x="520" y="160" width="150" height="40" as="geometry" />
        </mxCell>
        <mxCell id="I5uU8x75WuUFm9Wus-JH-234" value="" style="edgeStyle=none;curved=1;rounded=0;orthogonalLoop=1;jettySize=auto;html=1;fontSize=12;startSize=8;endSize=8;strokeColor=light-dark(#000000,#000000);endArrow=none;endFill=0;" edge="1" parent="I5uU8x75WuUFm9Wus-JH-278" source="I5uU8x75WuUFm9Wus-JH-235" target="I5uU8x75WuUFm9Wus-JH-230">
          <mxGeometry relative="1" as="geometry" />
        </mxCell>
        <mxCell id="I5uU8x75WuUFm9Wus-JH-235" value="&lt;span style=&quot;color: light-dark(rgb(0, 0, 0), rgb(0, 0, 0));&quot;&gt;Atributos&lt;/span&gt;" style="swimlane;fontStyle=0;childLayout=stackLayout;horizontal=1;startSize=30;horizontalStack=0;resizeParent=1;resizeParentMax=0;resizeLast=0;collapsible=1;marginBottom=0;whiteSpace=wrap;html=1;fontColor=light-dark(#000000,#FFFFFF);fillColor=light-dark(#FFFFFF,#FFFFFF);strokeColor=light-dark(#000000,#000000);fontSize=19;container=0;" vertex="1" parent="I5uU8x75WuUFm9Wus-JH-278">
          <mxGeometry x="171" y="120" width="150" height="130" as="geometry" />
        </mxCell>
        <mxCell id="I5uU8x75WuUFm9Wus-JH-237" value="" style="edgeStyle=none;curved=1;rounded=0;orthogonalLoop=1;jettySize=auto;html=1;fontSize=12;startSize=8;endSize=8;strokeColor=light-dark(#000000,#000000);exitX=-0.007;exitY=0.227;exitDx=0;exitDy=0;exitPerimeter=0;endArrow=none;endFill=0;" edge="1" parent="I5uU8x75WuUFm9Wus-JH-278" source="I5uU8x75WuUFm9Wus-JH-213" target="I5uU8x75WuUFm9Wus-JH-233">
          <mxGeometry relative="1" as="geometry">
            <mxPoint x="430" y="235" as="sourcePoint" />
            <mxPoint x="430" y="210" as="targetPoint" />
          </mxGeometry>
        </mxCell>
        <mxCell id="I5uU8x75WuUFm9Wus-JH-260" value="Salida de clientes" style="swimlane;startSize=30;horizontal=1;childLayout=treeLayout;horizontalTree=0;sortEdges=1;resizable=0;containerType=tree;fontSize=19;fontColor=light-dark(#000000,#000000);labelBackgroundColor=none;fillColor=light-dark(#FFE599,#FFFFFF);strokeColor=light-dark(#000000,#FFE599);gradientColor=none;swimlaneFillColor=light-dark(#FFFFFF,#FFE599);container=0;" vertex="1" parent="I5uU8x75WuUFm9Wus-JH-278">
          <mxGeometry x="435" y="294" width="190" height="272" as="geometry" />
        </mxCell>
        <mxCell id="I5uU8x75WuUFm9Wus-JH-265" style="edgeStyle=none;curved=0;rounded=0;orthogonalLoop=1;jettySize=auto;html=1;exitX=0.5;exitY=1;exitDx=0;exitDy=0;entryX=0.5;entryY=0;entryDx=0;entryDy=0;fontSize=12;startSize=8;endSize=8;strokeColor=light-dark(#000000,#000000);strokeWidth=1;" edge="1" parent="I5uU8x75WuUFm9Wus-JH-278" source="I5uU8x75WuUFm9Wus-JH-233" target="I5uU8x75WuUFm9Wus-JH-260">
          <mxGeometry relative="1" as="geometry">
            <mxPoint x="445" y="210" as="sourcePoint" />
            <mxPoint x="540" y="304" as="targetPoint" />
            <Array as="points">
              <mxPoint x="595" y="244" />
              <mxPoint x="530" y="244" />
            </Array>
          </mxGeometry>
        </mxCell>
        <mxCell id="I5uU8x75WuUFm9Wus-JH-266" value="" style="shape=umlActor;verticalLabelPosition=bottom;verticalAlign=top;html=1;outlineConnect=0;strokeColor=light-dark(#000000,#00CC00);fontColor=light-dark(#000000,#000000);container=0;" vertex="1" parent="I5uU8x75WuUFm9Wus-JH-278">
          <mxGeometry x="537" y="246" width="10" height="20" as="geometry" />
        </mxCell>
        <mxCell id="I5uU8x75WuUFm9Wus-JH-267" value="" style="shape=umlActor;verticalLabelPosition=bottom;verticalAlign=top;html=1;outlineConnect=0;strokeColor=light-dark(#000000,#0000FF);fontColor=light-dark(#000000,#000000);container=0;" vertex="1" parent="I5uU8x75WuUFm9Wus-JH-278">
          <mxGeometry x="513" y="257" width="10" height="20" as="geometry" />
        </mxCell>
        <mxCell id="I5uU8x75WuUFm9Wus-JH-268" value="Usuarios" style="text;html=1;align=center;verticalAlign=middle;whiteSpace=wrap;rounded=0;fontColor=light-dark(#000000,#000000);fontSize=24;container=0;" vertex="1" parent="I5uU8x75WuUFm9Wus-JH-278">
          <mxGeometry x="190" y="63" width="140" height="30" as="geometry" />
        </mxCell>
        <mxCell id="I5uU8x75WuUFm9Wus-JH-277" value="" style="strokeWidth=3;html=1;shape=mxgraph.flowchart.annotation_2;align=left;labelPosition=right;pointerEvents=1;strokeColor=light-dark(#000000,#000000);direction=east;container=0;" vertex="1" parent="I5uU8x75WuUFm9Wus-JH-278">
          <mxGeometry x="320" y="54" width="30" height="50" as="geometry" />
        </mxCell>
        <mxCell id="I5uU8x75WuUFm9Wus-JH-236" value="&lt;span style=&quot;color: light-dark(rgb(0, 0, 0), rgb(0, 0, 0));&quot;&gt;&lt;font style=&quot;font-size: 15px;&quot;&gt;&lt;b&gt;# Cajeros (G1, G2, G3, G4)&lt;/b&gt;&lt;/font&gt;&lt;/span&gt;&lt;div&gt;&lt;font color=&quot;#000000&quot;&gt;&lt;span style=&quot;caret-color: rgb(0, 0, 0); font-size: 15px;&quot;&gt;&lt;b&gt;&lt;br&gt;&lt;/b&gt;&lt;/span&gt;&lt;/font&gt;&lt;div&gt;&lt;span style=&quot;color: light-dark(rgb(0, 0, 0), rgb(0, 0, 0));&quot;&gt;&lt;font style=&quot;font-size: 15px;&quot;&gt;Tiempos de servicios&lt;/font&gt;&lt;/span&gt;&lt;/div&gt;&lt;/div&gt;" style="text;strokeColor=none;fillColor=none;align=left;verticalAlign=middle;spacingLeft=4;spacingRight=4;overflow=hidden;points=[[0,0.5],[1,0.5]];portConstraint=eastwest;rotatable=0;whiteSpace=wrap;html=1;container=0;" vertex="1" parent="I5uU8x75WuUFm9Wus-JH-278">
          <mxGeometry x="171" y="150" width="150" height="100" as="geometry" />
        </mxCell>
        <mxCell id="I5uU8x75WuUFm9Wus-JH-243" value="" style="shape=umlActor;verticalLabelPosition=bottom;verticalAlign=top;html=1;outlineConnect=0;strokeColor=light-dark(#000000,#000000);fontColor=light-dark(#000000,#000000);container=0;" vertex="1" parent="I5uU8x75WuUFm9Wus-JH-278">
          <mxGeometry x="430" y="68" width="10" height="20" as="geometry" />
        </mxCell>
        <mxCell id="I5uU8x75WuUFm9Wus-JH-245" value="" style="shape=umlActor;verticalLabelPosition=bottom;verticalAlign=top;html=1;outlineConnect=0;strokeColor=light-dark(#000000,#000000);fontColor=light-dark(#000000,#000000);container=0;" vertex="1" parent="I5uU8x75WuUFm9Wus-JH-278">
          <mxGeometry x="418" y="78" width="10" height="20" as="geometry" />
        </mxCell>
        <mxCell id="I5uU8x75WuUFm9Wus-JH-246" value="" style="shape=umlActor;verticalLabelPosition=bottom;verticalAlign=top;html=1;outlineConnect=0;strokeColor=light-dark(#000000,#000000);fontColor=light-dark(#000000,#000000);container=0;" vertex="1" parent="I5uU8x75WuUFm9Wus-JH-278">
          <mxGeometry x="406" y="69" width="10" height="20" as="geometry" />
        </mxCell>
        <mxCell id="I5uU8x75WuUFm9Wus-JH-247" value="" style="shape=umlActor;verticalLabelPosition=bottom;verticalAlign=top;html=1;outlineConnect=0;strokeColor=light-dark(#000000,#000000);fontColor=light-dark(#000000,#000000);container=0;" vertex="1" parent="I5uU8x75WuUFm9Wus-JH-278">
          <mxGeometry x="452" y="68" width="10" height="20" as="geometry" />
        </mxCell>
        <mxCell id="I5uU8x75WuUFm9Wus-JH-250" value="" style="shape=umlActor;verticalLabelPosition=bottom;verticalAlign=top;html=1;outlineConnect=0;strokeColor=light-dark(#000000,#000000);fontColor=light-dark(#000000,#000000);container=0;" vertex="1" parent="I5uU8x75WuUFm9Wus-JH-278">
          <mxGeometry x="593.5714285714286" y="68" width="9.821428571428571" height="20" as="geometry" />
        </mxCell>
        <mxCell id="I5uU8x75WuUFm9Wus-JH-252" value="" style="shape=umlActor;verticalLabelPosition=bottom;verticalAlign=top;html=1;outlineConnect=0;strokeColor=light-dark(#000000,#000000);fontColor=light-dark(#000000,#000000);container=0;" vertex="1" parent="I5uU8x75WuUFm9Wus-JH-278">
          <mxGeometry x="581.7857142857143" y="78" width="9.821428571428571" height="20" as="geometry" />
        </mxCell>
        <mxCell id="I5uU8x75WuUFm9Wus-JH-253" value="" style="shape=umlActor;verticalLabelPosition=bottom;verticalAlign=top;html=1;outlineConnect=0;strokeColor=light-dark(#000000,#000000);fontColor=light-dark(#000000,#000000);container=0;" vertex="1" parent="I5uU8x75WuUFm9Wus-JH-278">
          <mxGeometry x="570" y="68" width="9.821428571428571" height="20" as="geometry" />
        </mxCell>
        <mxCell id="I5uU8x75WuUFm9Wus-JH-254" value="" style="shape=umlActor;verticalLabelPosition=bottom;verticalAlign=top;html=1;outlineConnect=0;strokeColor=light-dark(#000000,#000000);fontColor=light-dark(#000000,#000000);container=0;" vertex="1" parent="I5uU8x75WuUFm9Wus-JH-278">
          <mxGeometry x="615.1785714285714" y="68" width="9.821428571428571" height="20" as="geometry" />
        </mxCell>
        <mxCell id="I5uU8x75WuUFm9Wus-JH-261" style="edgeStyle=none;curved=1;rounded=0;orthogonalLoop=1;jettySize=auto;html=1;entryX=0.5;entryY=0;entryDx=0;entryDy=0;fontSize=12;startSize=8;endSize=8;endArrow=none;endFill=0;strokeColor=light-dark(#000000,#000000);" edge="1" parent="I5uU8x75WuUFm9Wus-JH-278" source="I5uU8x75WuUFm9Wus-JH-262" target="I5uU8x75WuUFm9Wus-JH-263">
          <mxGeometry relative="1" as="geometry" />
        </mxCell>
        <mxCell id="I5uU8x75WuUFm9Wus-JH-262" value="Salida de clientes" style="whiteSpace=wrap;html=1;fontSize=19;fontColor=light-dark(#000000,#000000);fillColor=light-dark(#FFFFFF,#FFFFFF);strokeColor=light-dark(#000000,#0000FF);container=0;" vertex="1" parent="I5uU8x75WuUFm9Wus-JH-278">
          <mxGeometry x="455" y="344" width="150" height="40" as="geometry" />
        </mxCell>
        <mxCell id="I5uU8x75WuUFm9Wus-JH-263" value="&lt;span style=&quot;color: light-dark(rgb(0, 0, 0), rgb(0, 0, 0));&quot;&gt;Atributos&lt;/span&gt;" style="swimlane;fontStyle=0;childLayout=stackLayout;horizontal=1;startSize=30;horizontalStack=0;resizeParent=1;resizeParentMax=0;resizeLast=0;collapsible=1;marginBottom=0;whiteSpace=wrap;html=1;fontColor=light-dark(#000000,#FFFFFF);fillColor=light-dark(#FFFFFF,#FFFFFF);strokeColor=light-dark(#000000,#000000);fontSize=19;container=0;" vertex="1" parent="I5uU8x75WuUFm9Wus-JH-278">
          <mxGeometry x="455" y="436.0000000000001" width="150" height="110" as="geometry" />
        </mxCell>
        <mxCell id="I5uU8x75WuUFm9Wus-JH-264" value="&lt;b style=&quot;caret-color: rgb(0, 0, 0); font-size: 15px; color: light-dark(rgb(0, 0, 0), rgb(0, 0, 0));&quot;&gt;Tiempos de espera&lt;/b&gt;&lt;div&gt;&lt;span style=&quot;color: light-dark(rgb(0, 0, 0), rgb(0, 0, 0));&quot;&gt;&lt;font&gt;&lt;span style=&quot;caret-color: rgb(0, 0, 0); font-size: 15px;&quot;&gt;&lt;b&gt;&lt;br&gt;&lt;/b&gt;&lt;/span&gt;&lt;/font&gt;&lt;b style=&quot;caret-color: rgb(0, 0, 0); font-size: 15px;&quot;&gt;Utilización de servidores&lt;/b&gt;&lt;/span&gt;&lt;br&gt;&lt;/div&gt;" style="text;strokeColor=none;fillColor=none;align=left;verticalAlign=middle;spacingLeft=4;spacingRight=4;overflow=hidden;points=[[0,0.5],[1,0.5]];portConstraint=eastwest;rotatable=0;whiteSpace=wrap;html=1;container=0;" vertex="1" parent="I5uU8x75WuUFm9Wus-JH-278">
          <mxGeometry x="455" y="466.0000000000001" width="150" height="80" as="geometry" />
        </mxCell>
        <mxCell id="I5uU8x75WuUFm9Wus-JH-270" value="" style="shape=umlActor;verticalLabelPosition=bottom;verticalAlign=top;html=1;outlineConnect=0;strokeColor=light-dark(#000000,#00CC00);fontColor=light-dark(#000000,#000000);container=0;" vertex="1" parent="I5uU8x75WuUFm9Wus-JH-278">
          <mxGeometry x="611" y="110" width="10" height="20" as="geometry" />
        </mxCell>
        <mxCell id="I5uU8x75WuUFm9Wus-JH-271" value="" style="shape=umlActor;verticalLabelPosition=bottom;verticalAlign=top;html=1;outlineConnect=0;strokeColor=light-dark(#000000,#00CC00);fontColor=light-dark(#000000,#000000);container=0;" vertex="1" parent="I5uU8x75WuUFm9Wus-JH-278">
          <mxGeometry x="611" y="130" width="10" height="20" as="geometry" />
        </mxCell>
        <mxCell id="I5uU8x75WuUFm9Wus-JH-272" value="" style="shape=umlActor;verticalLabelPosition=bottom;verticalAlign=top;html=1;outlineConnect=0;strokeColor=light-dark(#000000,#00CC00);fontColor=light-dark(#000000,#000000);container=0;" vertex="1" parent="I5uU8x75WuUFm9Wus-JH-278">
          <mxGeometry x="599" y="120" width="10" height="20" as="geometry" />
        </mxCell>
        <mxCell id="I5uU8x75WuUFm9Wus-JH-274" value="" style="shape=umlActor;verticalLabelPosition=bottom;verticalAlign=top;html=1;outlineConnect=0;strokeColor=light-dark(#000000,#0000FF);fontColor=light-dark(#000000,#000000);container=0;" vertex="1" parent="I5uU8x75WuUFm9Wus-JH-278">
          <mxGeometry x="400" y="122" width="10" height="20" as="geometry" />
        </mxCell>
        <mxCell id="I5uU8x75WuUFm9Wus-JH-275" value="" style="shape=umlActor;verticalLabelPosition=bottom;verticalAlign=top;html=1;outlineConnect=0;strokeColor=light-dark(#000000,#0000FF);fontColor=light-dark(#000000,#000000);container=0;" vertex="1" parent="I5uU8x75WuUFm9Wus-JH-278">
          <mxGeometry x="422" y="122" width="10" height="20" as="geometry" />
        </mxCell>
        <mxCell id="I5uU8x75WuUFm9Wus-JH-276" value="" style="shape=umlActor;verticalLabelPosition=bottom;verticalAlign=top;html=1;outlineConnect=0;strokeColor=light-dark(#000000,#0000FF);fontColor=light-dark(#000000,#000000);container=0;" vertex="1" parent="I5uU8x75WuUFm9Wus-JH-278">
          <mxGeometry x="410" y="111" width="10" height="20" as="geometry" />
        </mxCell>
        <mxCell id="I5uU8x75WuUFm9Wus-JH-279" value="" style="group" vertex="1" connectable="0" parent="I5uU8x75WuUFm9Wus-JH-280">
          <mxGeometry x="320" width="350" height="226" as="geometry" />
        </mxCell>
        <mxCell id="I5uU8x75WuUFm9Wus-JH-215" value="Llegada de usuarios" style="swimlane;startSize=30;horizontal=1;childLayout=treeLayout;horizontalTree=0;sortEdges=1;resizable=0;containerType=tree;fontSize=19;fontColor=light-dark(#000000,#000000);labelBackgroundColor=none;fillColor=light-dark(#FFE599,#FFFFFF);strokeColor=light-dark(#000000,#FFE599);gradientColor=none;swimlaneFillColor=light-dark(#FFFFFF,#FFE599);container=0;" vertex="1" parent="I5uU8x75WuUFm9Wus-JH-279">
          <mxGeometry width="350" height="191" as="geometry" />
        </mxCell>
        <mxCell id="I5uU8x75WuUFm9Wus-JH-216" value="Creación de usuarios" style="whiteSpace=wrap;html=1;fontSize=18;fontColor=light-dark(#000000,#000000);fillColor=light-dark(#FFFFFF,#FFFFFF);strokeColor=light-dark(#000000,#000000);container=0;" vertex="1" parent="I5uU8x75WuUFm9Wus-JH-279">
          <mxGeometry x="140" y="50" width="100" height="40" as="geometry" />
        </mxCell>
        <mxCell id="I5uU8x75WuUFm9Wus-JH-217" value="G1" style="whiteSpace=wrap;html=1;fontSize=18;fontColor=light-dark(#000000,#000000);fillColor=light-dark(#FFFFFF,#FFFFFF);strokeColor=light-dark(#000000,#FF9933);strokeWidth=3;container=0;" vertex="1" parent="I5uU8x75WuUFm9Wus-JH-279">
          <mxGeometry x="50" y="141.00000000000003" width="40" height="30" as="geometry" />
        </mxCell>
        <mxCell id="I5uU8x75WuUFm9Wus-JH-218" value="" style="edgeStyle=elbowEdgeStyle;elbow=vertical;html=1;rounded=1;curved=0;sourcePerimeterSpacing=0;targetPerimeterSpacing=0;startSize=6;endSize=6;fontColor=light-dark(#000000,#FFFFFF);strokeColor=light-dark(#000000,#000000);" edge="1" parent="I5uU8x75WuUFm9Wus-JH-279" source="I5uU8x75WuUFm9Wus-JH-216" target="I5uU8x75WuUFm9Wus-JH-217">
          <mxGeometry relative="1" as="geometry" />
        </mxCell>
        <mxCell id="I5uU8x75WuUFm9Wus-JH-219" value="G2" style="whiteSpace=wrap;html=1;fontSize=18;fontColor=light-dark(#000000,#000000);fillColor=light-dark(#FFFFFF,#FFFFFF);strokeColor=light-dark(#000000,#FF9933);strokeWidth=3;container=0;" vertex="1" parent="I5uU8x75WuUFm9Wus-JH-279">
          <mxGeometry x="130" y="141.00000000000003" width="40" height="30" as="geometry" />
        </mxCell>
        <mxCell id="I5uU8x75WuUFm9Wus-JH-220" value="" style="edgeStyle=elbowEdgeStyle;elbow=vertical;html=1;rounded=1;curved=0;sourcePerimeterSpacing=0;targetPerimeterSpacing=0;startSize=6;endSize=6;fontColor=light-dark(#000000,#FFFFFF);strokeColor=light-dark(#000000,#000000);" edge="1" parent="I5uU8x75WuUFm9Wus-JH-279" source="I5uU8x75WuUFm9Wus-JH-216" target="I5uU8x75WuUFm9Wus-JH-219">
          <mxGeometry relative="1" as="geometry" />
        </mxCell>
        <mxCell id="I5uU8x75WuUFm9Wus-JH-221" value="" style="edgeStyle=elbowEdgeStyle;elbow=vertical;html=1;rounded=1;curved=0;sourcePerimeterSpacing=0;targetPerimeterSpacing=0;startSize=6;endSize=6;fontColor=light-dark(#000000,#FFFFFF);strokeColor=light-dark(#000000,#000000);" edge="1" parent="I5uU8x75WuUFm9Wus-JH-279" source="I5uU8x75WuUFm9Wus-JH-216" target="I5uU8x75WuUFm9Wus-JH-222">
          <mxGeometry relative="1" as="geometry">
            <mxPoint x="-10" y="380" as="sourcePoint" />
          </mxGeometry>
        </mxCell>
        <mxCell id="I5uU8x75WuUFm9Wus-JH-222" value="G3" style="whiteSpace=wrap;html=1;fontSize=18;fontColor=light-dark(#000000,#000000);fillColor=light-dark(#FFFFFF,#FFFFFF);strokeColor=light-dark(#000000,#FF9933);strokeWidth=3;container=0;" vertex="1" parent="I5uU8x75WuUFm9Wus-JH-279">
          <mxGeometry x="210" y="141.00000000000003" width="40" height="30" as="geometry" />
        </mxCell>
        <mxCell id="I5uU8x75WuUFm9Wus-JH-223" value="" style="edgeStyle=elbowEdgeStyle;elbow=vertical;html=1;rounded=1;curved=0;sourcePerimeterSpacing=0;targetPerimeterSpacing=0;startSize=6;endSize=6;fontColor=light-dark(#000000,#FFFFFF);strokeColor=light-dark(#000000,#000000);" edge="1" parent="I5uU8x75WuUFm9Wus-JH-279" source="I5uU8x75WuUFm9Wus-JH-216" target="I5uU8x75WuUFm9Wus-JH-224">
          <mxGeometry relative="1" as="geometry">
            <mxPoint x="130" y="380" as="sourcePoint" />
          </mxGeometry>
        </mxCell>
        <mxCell id="I5uU8x75WuUFm9Wus-JH-224" value="G4" style="whiteSpace=wrap;html=1;fontSize=18;fontColor=light-dark(#000000,#000000);fillColor=light-dark(#FFFFFF,#FFFFFF);strokeColor=light-dark(#000000,#FF9933);strokeWidth=3;container=0;" vertex="1" parent="I5uU8x75WuUFm9Wus-JH-279">
          <mxGeometry x="290" y="141.00000000000003" width="40" height="30" as="geometry" />
        </mxCell>
        <mxCell id="I5uU8x75WuUFm9Wus-JH-225" value="" style="shape=image;verticalLabelPosition=bottom;labelBackgroundColor=default;verticalAlign=top;aspect=fixed;imageAspect=0;image=data:image/png,iVBORw0KGgoAAAANSUhEUgAAAPgAAACmCAYAAAD3VUKMAAAAAXNSR0IArs4c6QAAAIRlWElmTU0AKgAAAAgABQESAAMAAAABAAEAAAEaAAUAAAABAAAASgEbAAUAAAABAAAAUgEoAAMAAAABAAIAAIdpAAQAAAABAAAAWgAAAAAAAACQAAAAAQAAAJAAAAABAAOgAQADAAAAAQABAACgAgAEAAAAAQAAAPigAwAEAAAAAQAAAKYAAAAAlpO+qwAAAAlwSFlzAAAWJQAAFiUBSVIk8AAAEt1JREFUeAHtnQmwHUUVhl/AJELYN4EkJIQ1AoWIAkLYtMIiKBgpRcQsaCwFZFNZBQQUCGKBqEgBFSARWRRlUwlqApgYCauBQAIBAyFAiiWBQNij/1++KSeTme7TMz13efc/VafuTPfp06e/mZ6Z7p55r6tLIgIiIAIiIAIiIAIiIAIiIAIiIAIiIAIiIAIiIAIiIAIiIAIiIAIiIAIiIAIiIAIiIAIiIAIiIAIiIAIiIAIiIAIiIAIiIAIiIAIiIAIiIAIiIAIiIAIiIAIiIAIiIAIiIAIiIAIiIAIiIAIiIAIiIAIiIAIiIAIiIAIiIAIiIAIiIAIiIAIiIAIiIAIiIAIiIAIiIAIiIAIi0EEEenVQW6s0dSUUHggdAt0Muip0PvTpbl2CX4kIiECbEfgk4r0S+gb0Pw5lRx8D5YVAIgIi0OIERiC+B6CuTp2X9yjKDGvxtik8EehYAv3R8tuheZ3XmrYI5QdDJSIgAi1EYF/E8hLU2pFddjPgp08LtU2hiEBHEzgNrV8GdXXa0LzTO5qoGi8CLUCgN2IYDw3tvBb7uS3QPoUgAh1LoB9afifU0lnL2nyiY+mq4SLQRAJrou6pUFfHfQf5v4ZybD4YOgi6N/R6qPVx/kLYSkRABBpIoC/quh/q6tx3IJ8z6kVyEDI+gLp8MO+JIgdKFwERqIcAOzjXq/M651KkH2mslhNzeT7SabwI8K03iQiIQAMJDEBdfNU03RkXYn/ngBjYcS3LahqHB0CVqQjEIrANHL0KZSefBR0MDZVzUCB9kcjbPiTUqexFQATiENgdbviuOSfdyshOKJTXqdNpx5RxrDIiIALNJ7AyQlgMTXfo7Pb5zQ9TEXQqAX39VO3IcxJtmsfFup58ZYtAbQTUwaujfdzjYnVPvrJFoDYC6uDV0c72uFAH9wBSdn0E1MGrs53jcbGaJ1/ZIlAbAXXw6mif9bjgBy0SEWgKAXXw6tj5sotLPuTKVJ4I1ElAHbw6Xb7eSi0SdfAiMkqvnYA6eBzErru4OngcxvJSgoA6eAloOUVeyUlTkgg0nYA6eJxD4HpE57fjEhFoCgF18DjY+cchioRvu0lEoCkE1MHjYH/b4UZ3cAccZdVLQB08Dl/XHfz9OFXIiwiEE1AHD2eWV2K9vMTutPccecoSgVoJqINXxzsaLvZwuNEd3AFHWSLQygSGILjXodlvwNP7k1q5AYqtZxPQHbz88eUfe5gI9X0tpkf08oxVsiIBdfDyAE9F0V0Nxd812MhEBESghQjwb7Hxzpx+FC/avq6F4lYoHUZAd/DwA94PRfgfT6zvmOsOHs5YJSIRUAcPB3kRimwRUMy1Rh7gRqYiEE5AHTyMGf9l0diwIl26gwcCk3k8AurgdpYbwpR/Qz1U1MFDick+GgF1cDvK8TB1vbFW5EmP6EVklF47AXVwG+KjYLa/zXQFK93BV0CihEYRUAf3kx4Kk5/4zQotdAcvRKOMugmog7sJ90H2tdBV3GbOXNenpM6CyhSBqgTUwd0Ez0b2Dm4Tb646uBeRDESg8QT2RJX8ayxFb6hZ08c0PnTVKAL/I6A7eP6ZwH8nPAFq4fNWt22+p64u3cGLyCi9dgKWE7j2IFqwgksR0ybGuE6B3UKHrTq4A46yRKDRBA5DhdbH77th2wt6uaPMfsiTiIAItAAB3rUXQy0d/A3YDemO+UZHmb26bfQjAg0noEf0/yMniwlQjr8tciKMnu42dJXRiy4WmrIRgZoJnAT/ljs3bf4K5aN5Ivdio6jsjomRfkVABJpDgGvdfOOsqJOm0/k32AZlwpztKLttxla7IiACDSTAt9Qeg6Y7sWs773PRFx3lQ74db2CzS1XFv0O3PnRz6IZQ6x+9gKmkGQR0gLq6LgD4oUb4d8DuihzbnjYG50Vvd+hwKP881QZQfkm3DjQ7b8NJSf531ZczvzOxz1WGBdBmCYdR/KOYa3crt/nyEudFnoPywtyjJT2O7NENLWjc/kj/U0FeNvk1JPBxmydGWniRdP3l1P7Ifz5doEW3+aeojoB+HjoM+mFoDHkKTtjRE30mhtMcH+sibRfodindCtv8nqBIXkXGo9BZ3foQfqdD+QQnaXMCfNR8Aep6HE/njSpoL+8OabvsNutpZWHHOAv6CjQbex3781BP3jAHyUHCC+tu0LOh90JjvFbM9s6BHgddCyppYwI3I3brCXybo51cO3f54QWgFWVVBMXPYN+EuuKvI+/ECkA4dOBf1llUc9wcdhwClbQhAd5BrCcuT6SNHG3cxuNrNUfZZmXtioqf8MRdxId3er7kU5RvSeedN0QGw/gM6FyoxX9MG74bwacFSZsQ2AJxhpygYzzt4rjPdULFGst6wjBl94XVOKj1cZZzC3+GjoRuBk23ZWPs7wk9Gso5BheDdB6XIxmHVTiEWAZN+7Bus67HoZwcvQ+6FGotm7Ybj3KSNiDAKzHHa+mD59qeZGjTcI8/1ySPwX00kzXg6R5PrAkLdowfQ9m5LMLxKh+bk/Ku339YHKZs1jP6Terkxetq6EehXNZLy0rY2RI6Ghoy/0LfJ0AlLU6AEzLJieD7XQLbQYb2jPD4bIXHO070PeiJM+ExBXZbQ8sIx9aJn6JfjvtDJKSD84LMlQ6L8OLl+oYgGz9n3F3LoZY6ZVMjAY4734dmD1zR/pHGWA73+ORdo5kyEJXPhha1M51+XsVA+ej9b09dXwisw9rBb4Hf7B3bUlXIK8qnWxzKpvEE+ILDU9D0yeza5pptL2OY3/T4LXPSGav2mvGOM8cTHzlwjPtdaAw5DE5cbDcIrMTSwafC5yqBfhNzHp9Hoa6Yk7wHkkL6bS0CVxkPIA8kJ2I2Dwj/WI/v3gG+YpryAnWrJ7bkxB0bsWLWy5WHxHf698kS9fg6+HPwWXUpcp+CeNOxc5sXQuu8BEwljSDwRVSSPVCu/dA72Ske/+mZ50a0N6njLE9cCYOfJQUi/k4rqPuaEnX4Ojhn8WOIdQLyMzEqk484BLiUE/KGFmfYQx+pfRN3/eI0JcjLAbC2LC3xpK5jEvBy+E0uIOlfDmdCxdXBF8BZrAvoT+ErHWvR9qGhDWimfbMngOpsOx8Vr4auY6zkXdgdAeUyS4j4xn51dCBXfHyx5jIo2++SJcj8CpQTj7FlVoFD3tlDhceDF6s8GYfEt/MySqRxrsIivOC0jTT65GskGK5bDg+o8EewLToxXW76uDKR19uTHzv7h3A4wOD0TNgsMNiVMeHYP3vh4B3xsRLOOJ7nRTrvXF1cwl9REa40WCQvDks52UQk8HH4egda9JiVTX8EtmU74i899QxGfqNkO1TEt8+y7cvuz4SNTtTlj8r2Bm7kOHL5Yq291xMf0Tnm/Q3Ud2dNjgwPGseG7BhlxNdR+MjcKPkFKvLFw1iOg2bvsEzvZLE89ZAP53TaRnpiB78Y9LcKOAK/gu30APusqa9DNaqD74nA9sgGl7P/MNIm56R3etIQI4AXjHYyq4HAIfCZfRx17XMMyne0q8jVKOyqY78qzgPKTvLEkcQ4JsBnJ5leZODHu3dPvCm2xXEejCiLXrBITu7s74gILbsCPrJ+0/tfj1CHzwXnHNJ1Fm2/BLtYy0q+mNotn/MwRdySdA792kp6ytWIE2Q3QNcKoH8rbH8fYF9k+lZRRnf6Jp78GNknG51wfTrWspKxyrYw2xlRbmuIlOeYpAkErC8pJFdirgEPjBTn+fCT+M37nRhQDy9QoWP2dVDGsmLASUTrRFJAyD3C9Ha0Iu/YpdP+2SNa2oaNOBAxLzMcoPTBOiZiO8/01P2ksS5O8syD/gsa8jIFVwDSbSva1t0HoHJkX6QVMUunWyYwc9wrqQqBzVA4dNw9A2ViDk2+D3/pEyFvu7+nkZsjf37KT0gnvytVLq/uJG032EmWJ7A6dudCE0ZFv1ctX0x7jSCwKiqZCS06KHnpXPv9WOTgxhpiOMdR56eR92KOD0sn5yO35ellHuwkKxKYgKS88ySd9iBsNDG5IrvaU64zHJz0geJ2HV9O8dEtW092n2N+znSnhePtc6F81zprn+yfli6Qs/0tR9nEB3/H55Tt9KRRBnZcFhvc6aCa0f7jUWn6BLZs8y65Zg3BfsQYy3uwuxt6AfQa6OtQV9wcM/eBuoTLNi4fSd7hLicdmLcr2szVhIRP3i8/PuLTlaTBBPZCfewseQfFlTayxjhD5wFccTKPr5xa5gmeM3LoX2Pb2831IAS80MDta+3WsJ4QL8ecloOT7UBTUa5XjQBuge9snWX3TzfGOcRYp/UzSGO1bW3GJUV+Meg7Nr6hUVtDaOXgpxgOTvbgcWJt+5obdVCJuLJxvgofXw6Ik3eYrI+8/csCfPZkU36ENN3AjF8H9hjxfSjRSg3lAeKEVqhcigKcka5T/gjnz0M3LlnJX1BuDJTvxltla6PhZKOdy4ztCnlL0OWrzDfhLn+WPM5l8K3FXTzGnIw82mOj7JoIDIPfvDuUK42P83VMrOU1cXckWt4oS8f7GsrwhCozfLgR5dK+8raXwWYDaFXhECfPf5m0oVWDCSy/Mux/a4h/Imws8x6B1cvcSuBgGIaeUKOsziPZfQl++EGHL07e7U+CVrn4PGSoJ8bdknc/34yzr71J/lL4or9GCTvstdCk/qLfG2DDC4FEBLwE+ALOd6C/g94LZWfmEt0U6CXQr0L7QqsK19aLTtgknUOHqsIXgxJ/VX//VjWYgPLs3FyO9MV8E2zaaagagECm7UpgNQTuO3GZzzFlVeGdbQvoPtALoYuglrrTNn9AmdHQGMMFuPEKhzxXQtMx5G1zXN7b600GItBgAhuhvrwTNpt2bg1x8Y0861wD5wCOqyEGn0u+R5Blkd3nRUed20dS+U0hwDtq9oTN2z+2pugmG+ufUFP9Lre8qOWxSKfdDBt1bhdF5TWVAO+i6RO2aDtkXT2kQey4RXWm0/cIcRrB9mRDXLfCRp07Amy5qI+Adclwr5pC4ARiuiPnbXM1gRNdjZKjUFFeHOk0Tjr2aVRAqkcEyhLYCQXTJ27RtvVlmNA4ZhjqvzbUaQX7kSjL8X4RB6ZPgsZYvYAbiQjUS8A6Bl+7pjAsa/2ja6o763Y/JPB1ZFfn5vLcKtmC2heBViXAP+nkOqGTPK7JxxZr3QNiV5zjb0ukLYYm7c37vQv5dXCAW4kI1EOAL2bknczZtDrWnXnHzNaT3X+ynmYv53VN7M32xHI/8vlnmTpWGjkJ0rGQa2g4H0mfMfhlJ4gtHP/7hMtodQrPW/5Fn60clcxF3mehfONPIgJtR+B6RJy9c2b3D6yhVdMM9R5WQ71pl+M8MbyA/E3TBSpsfwNl52f0UxX8qagImAgcD6tsh87un2ryZDcaCFPfbDVjoF1dsj8cZ9uZ3ueYfPtIlfOV1ydy6vtcJP9yIwKFBCxLZXcUli6XcQaKpTtT3va8cq5NpbgqsACaVy/TPoAOh8YSduS8uobFqkB+RMBF4HFk5p2ASRrH6rEm2rg095anPtbLt9zqkolwnLQt7/fMiBWvD19PF9S3TcR65EoECgnwXfO8Ez2ddlZhaXsGH1WnGOpivWPtboMsD/bUfyfyY00a7wxf/NQ3zTG9vTHy2kJ44CTtS2AthM5HVtc6L7/84ph0DrSM8HPR86HfMxYeCjsuX8UUPprTp+tp5Gbk8wWcMsI28hVW1rMddBOoS8ibTzMSEaidwAmoIX13ydteCBtOToXKABS4B5rnMy+tbAfzxXVeQAx5ccVMe9sXrPJFICYBPpbeDbWcxBfDrq+hco63OaH2MtTiN7G5zeA71GRDFHgzMI4knjp+uQTXNqI/VdM2h6ow0GXIGQ29D7ou1CUcsx8KfQg6C/oYlBNJfNuL40oub/FNtR2hZWR6mUKeMj9AvmsI4ikePXtRdI9yKAIGAhz7zofWcdey+tzbEGeIyaYwfrfJbcq2fVpIA5ptG2vWsdntUP1dXVwy2w3K32YI16BnRK54BPz1juyzqru2uoOrg1c93K1V/lmEswP0JOhrEUNbDF8XQTk2v7DA7yNI51g5prTiKk9bdfCYB0O+WosAP+scB+WXXdnHTMv+UpTj0tMoaD9oIryj/h2a9fHzxCDi77dz6snW2+j9SyK2r3ZXrXiFrL3RHVgBv5s+AMq7O9eSqXxTaw0o13OXQF+H8mIwE/ow9C4oO3mesPxN0IXQqdDJUN7B2dkkIiACIiACIiACIiACIiACIiACIiACIiACIiACIiACIiACIiACIiACIiACIiACIiACIiACIiACIiACIiACIiACIiACIiACIiACIiACIiACIiACIiACIiACIiACIiACIiACIiACIiACIiACIiACIiACIiACIiACIiACIiACIiACIiACIiACIiACIiACIiACIiACIiACIiACIiACIiACIiACIiACIiACIiACVgL/Bc3SQQtfymUEAAAAAElFTkSuQmCC;strokeColor=light-dark(#000000,#000000);container=0;" vertex="1" parent="I5uU8x75WuUFm9Wus-JH-279">
          <mxGeometry x="100" y="116" width="44.68" height="29.91" as="geometry" />
        </mxCell>
        <mxCell id="I5uU8x75WuUFm9Wus-JH-226" value="" style="shape=image;verticalLabelPosition=bottom;labelBackgroundColor=light-dark(#000000,#FFFFFF);verticalAlign=top;aspect=fixed;imageAspect=0;image=data:image/png,iVBORw0KGgoAAAANSUhEUgAAAPgAAACmCAYAAAD3VUKMAAAAAXNSR0IArs4c6QAAAIRlWElmTU0AKgAAAAgABQESAAMAAAABAAEAAAEaAAUAAAABAAAASgEbAAUAAAABAAAAUgEoAAMAAAABAAIAAIdpAAQAAAABAAAAWgAAAAAAAACQAAAAAQAAAJAAAAABAAOgAQADAAAAAQABAACgAgAEAAAAAQAAAPigAwAEAAAAAQAAAKYAAAAAlpO+qwAAAAlwSFlzAAAWJQAAFiUBSVIk8AAAETZJREFUeAHtnQmwHUUVhl+EsEOQTSCBhBCECIosIhAgQBVboaJISRUikEJcWBSxFAFRFhe2EnBBCBgLRFDKBQGVTSAYZFFZIhA22cKWApOQQNjR/8c3xdQw0336Tvfcuff+p+q8mTt9+vTpb6anZ3p65g0NSURABERABERABERABERABERABERABERABERABERABERABERABERABERABERABERABERABERABERABERABERABERABERABERABERABERABERABERABERABERABERABERABERABERABERABERABERABERABERABERABERABERABERABERABERABERABERABERABERABERABERABAaIwIgBqmudqr4LmdeCjoeuC10GOhv68LAuxFIiAiLQYwQ+hHjPg74A/a9D2dCnQHkikIiACLScwJ6I759QV6MuS7sbebZped0UnggMLIHRqPkV0LLGa902D/nHQSUiIAItIrALYnkWam3ILrvb4GeJFtVNoYjAQBM4BrV/E+pqtKFpxw40UVVeBFpAYCRimAYNbbwW+4daUD+FIAIDS2BZ1PxqqKWxdmqz+cDSVcVFoIsERqHsGVBXw30F6RdCeW8+DjoWugP0V1Dr5fxpsJWIgAg0SGBJlPUPqKtxX4l0jqhXyR5IeAPq8sG0B6ocaLsIiEAaAmzgfF5d1jgXYfvBxmI5MFfmI7+NJwHOepOIgAg0SGAMyuJU03xjnIPfHw6IgQ3X8lhN9+EBUGUqArEIbAhHc6Fs5PdAx0FD5URkyJ8kytb3CnUqexEQgTgEtoUbzjXnoFsnsgUylTXq/LYvdeJYeURABLpPYDGEMB+ab9DF9ZO6H6YiGFQCevup3p7nINpNHhcre9KVLALJCKiB10c7y+NieU+6kkUgGQE18Ppo7/O4UAP3AFJyOgJq4PXZ3u9xsZwnXckikIyAGnh9tI97XPCFFokIdIWAGnh97Jzs4pLFXYlKE4GUBNTA69Pl9FZqlaiBV5HR9uQE1MDjIHb14mrgcRjLSwcE1MA7gFaS5T8l27RJBLpOQA08zi5wXaLz3XGJCHSFgBp4HOz8OESVcLabRAS6QkANPA72lx1u1IM74CgpLQE18Dh8XT3463GKkBcRCCegBh7OrCzHKmUbh7e95khTkggkJaAGXh/vAXCxncONenAHHCWJQJsJjEdwC6DFd8Dzv69qcwUUW38TUA/e+f7lxx5+AfW9LaZL9M4ZK2dNAmrgnQM8Glm3NmR/1WAjExEQgRYR4LfY2DPnL8Wr1i9uUdwKZcAIqAcP3+HLIgv/44l1jrl68HDGyhGJgBp4OMjTkWW9gGyuZ+QBbmQqAuEE1MDDmPFfFh0UlmVIPXggMJnHI6AGbme5Okz5DfVQUQMPJSb7aATUwO0op8HUNWOtypMu0avIaHtyAmrgNsSHwGw3m+k7rNSDvwOJNjRFQA3cT3oiTE71m1VaqAevRKOE1ATUwN2El0DyL6FLu82cqa5XSZ0ZlSgCdQmogbsJnoDkTdwm3lQ1cC8iGYhA8wQmo0h+jaVqhpp1+5TmQ1eJIvB/AurBy48E/jvhC6AWPi8N25Z7GhpSD15FRtuTE7AcwMmDaGEBZyGmtY1xHQW7OQ5bNXAHHCWJQNME9kGB1svv6bAdAZ3qyLMr0iQiIAItIMBeez7U0sBfgN344ZgvceTZfthGCxFonIAu0d9GThYXQHn/bZGvw+jhYUNXHk10sdCUjQgkJnAk/Ft6btpcC+WleSa3YqUq72aZkZYiIALdIcBn3ZxxVtVI89v5DbaxhTDvc+TdqGCrnyIgAg0S4Cy1e6H5RuxaL3td9BlH/pB3xxusdkdF8Tt0q0InQFeHWj96AVNJNwhoBw0NnQLwE43wr4TduSW2/XYPzpPettCdoPw81WpQvkm3ErQ4bsNBSf531ecKy5n4zacMT0IlItAVAruhVFdvnU/jgTymJEqeJPN2xfU1S/K0cRM/RXUY9BooJ+8U69Hp74fg62fQ/aBjoW0Q7vc7oM8P6y1tCEoxxCXAS82nodYDd/+K4t/t8cFy2iwrI7jjofwXyFYWdeweRTlltznYnFw44PkXaDH+p5KXrAIaJ3BpyY4u7vjs9+WO6PjsPLMrW/IE0EZZBkHxNdgXoWVxp9zGR4xNyjoo7CLom9CyemWPO5uMSWUlJMAepGxHl22bB9s1HLFs6PG1nCNvt5K2RsEPeOIuY8Ft7Ok5yacq3bJ9EvI3Ibw6OR3qe0LCQVZJnxBYD/UIOUCneOq9JdJdB/VSnvxNJi+Jwk6GWt+S47ff/wzl/fO60HxdOLYwGXoolJe4Lgb5NDY2xpFSGCfnNVhnJfJ+XNIHBDggdis0f8C51q8y1Hknjz9+NKINsgKCuBHqqm+Wxkb4XSh7QIusCCN+kDLL71r+zeKwQxuO8B8AnQ11xVBM0yAbgPWDnIBKFHdu1e+FsB1rqPSeHp9teBTJgb7bPXFmHK6H3QbQToT31pmfqiXv+1PIznB6F7SqXNf2GSkCks9mCfC+83Woa0fn0w42hrevx2fxubHRbTSzteDJNdMuX+fv1yyVl96PQPM+i+ufqFlGMfsHsIFXWsVyQn5fX3Sq371FgP8B9N9Q607nBI0Rxip+zuOXs7+6JaNQ8P1QX705uvzVSEHu4ymPk2ZiyGg4mQa1jie4GPDZv6SHCfwcsbt2cD5tEWwnBNT1yx7fIwN8xTTlCeoyT2xZvQ+KWDDLnVdR7oMRyuHJ+kRozMd7lrGWCKHLRQoCn4TT7EC2LEN7sqM8/vMjzynqV+XzeE9cGYszqxzU2H5TRdnn1/DJsYwvQudU+M7qky1DZuNxCrKkBwnwUU7IDC2OsIdeUvsG7jgFtGnZHQXysjs72KuWN8ImxSDg1IqyeTvTiWyGTLOgVfXItj8Dm29Cud8pk6B8xp2lVy3/RGNJbxHgpeLV0KqdWtz+Cmw5aSVUOCpc9JX/zfvgJoUTayyPiRbAjvexKaTqtqUTvozvo9A80+L6XKQfDi17vs5n+EX74u8/wqYvJcXZuy2gjkAgOwUE8x3Y3hNgn5kuka1ULJu+Bz8OcYypiCW/+dv48WR+Q8R13vvziUVe2KjYm3YiVyDTv6DvL2RmGWdDj4PySq1MYtz3l/nVti4S2BRls0cunqmrfvPg6bQh/sRTzjikNyVsAK9Bq+qZbZ8Jm147ue9VqBdvpzaG+oSP0bJ6Vy37tgf3wenF9GURtPW5L3c471W3qlHRc5C36sDh9o1q+A7NOt0TSxbnjqGOW2DPWy5O1lkAPQxqnV8w0A28187i2K9eOQMW63ut3jb4KVZvfvtn8JqPYVMvm0xG5NsZor8TNtcZ7NpmwpMTJ8m8Cn26bcG1NR7fwdnWuKvi4mXcZ6sSS7Y/hW1HlWwP2eQbdec87SbkaGMhPzTatdHssTYG1eaYrJc5ba5DFts4rJyb/TAueanHS746wntel4x2JUZK2xR+djb4eg42FxvsZNInBPqlgXOA7NfQkN7yMtj/LsJ+5IQKl6ztSoyU9g2jn6mwe9loK7M+INAvDfwk7IstAvYH3wc/NMDeZbrIlYi08Z70fDJPUKH37Cshzx55JxXrfKTE8QbJABHohwb+EeyvrwTus2Ngz8kgMcTXg29pLIQnAg6A3QRdxZiHZhx38D2Lpx2vVp7gikQEeoXAugh0HjR7/GNZ3gb7mCe2rxnK992HT4CP/Oyzu/Db2shvMJRPLpOggygD/Zisl3c4Pxo4E2pp1JkNL1M/GLnSBxliONFR5o5I4xzqLMZsaWnkY5CPz/GzPFXLR2EzqKIG3qN7nqPBVQd01fYzE9SVz56rysu2L4QNR7rzwvvt70Fd7zPzVsIlX0BiVoZrOc3lpM/T1MB7cAfzntt1QJelsZcclaCu7zHG8hrsONPsFOj50AXQsjizbXwq4Lu3vsjjI/O1L+wGVdTAe2zPb4942Viyg9e63C9hPUPHAXwx/xixWsYJOGjm88X00Qnr3nbXauBt30O5+HjPOQdqOajzNjOQh3OZU8kf4DhfXp31Y41BctTdUs79Rn/9aqYG3kN79nrjQZ0/8DmwtnHiOu7RQVz5GLk+F7p3QJyfMZZ5doDPfjQd6Aa+eA/tUb4lxgGtUDkLGTginVL4uuFT0DU7LOQa5JsCfTIg/wZG2+uMdi4z1ouDgjGk03fCY5QtHy0msA1iK/Z6vt+8nE8xsFaGaVtsfCUwxudhzxl1ndw+XGIo603YrAatK7zF8bG2pk+sG0xg/oHuwQNZddX84yjdehBldvs3HPGnUN6zhjjZ2x8JrXPyucNQTozekiP5nL+eMa2zXAQ/9NekDHQD76VL9EtxVHTS0zV5MLFXvQJ6IHQydK1h5Yj4LCi/HHMr9DdQ9vZ1ZIIh8yMGG5/J+2CwpM/ImH4z7F412spMBAaWAF9IsfSk0yIQWgw+1oPuDD0NOg9qKTtv83vkOQAa43YBboJkoHvwIFIybg2BNRBJvgFVrX8vQcSckWcda+AYwOEJYghxOdAN3DKZIgSmbJshwB7cIhxkjC23wyHfeLPIhTA6w2IomzQE1MDTcE3tdXljAZyem0KeMDo9z2gns0QE1MATgU3sdhmj/xQ9OIu2lP8c7GYY45RZIgJq4InAJnZrHYlO1YOvbajf1bDhPbikiwTUwLsIv0bRHMm2SKoefB1D4ZydJ+kyATXwLu+ADou3NvC6z9rLwuOXZixfm7m2LLO2NUtADbxZ3rFKm290ZB1tN7p7y2xzg/FDsLEOxBncyaRTAmrgnZLrbr7XUfxjhhBGGWxCTbYwZLjOYCOTBgiogTcAOVERtxj8rm+wCTXZxZBhusFGJg0QUANvAHKiIjin3SecxRVTOLd+K4PDvxpsmjKxzKMf2VQwTZejBt408XjlWWaTbRevuLc8TcHfER6fvHWY7bFpMnlFQ2FLG2xkIgKNE+AbalXz0Lmd9+qxXvDgCycvecpjmRdA2ySfRjAuRky7u00Bx4xFPXhMms378n2OiW+CHRIhLPbaU6FLGXy16fKc4Vr+swxPXosb6iYTEWiUAC8/X4S6eih+rKHOYBtPEqd6ysiXvwFs2yL8zBcf1+Xjq1r/WFuCVhwikCdwBH5UHbTZds5o2y2fybg+BnY3QjM/viW/ZtMW4eDaxVBfzFn6A7CNdTvTFgaKow8I8DZrOjQ7UF1LvrppGVXmJeu3oHxhxOWvmHY57Lst/Ab8gdB7oMX4fL85d//z0NWhfSG+EdG+qOQAVGId1PHv0JUNdWVvfgeUDeBe6MNQvn66JpSPwXaFbgbtRI5BphQfmchi4ffc9oby0puz9LjkbQo/gMH4x0PZwGPIY3DCGXls9NS5UA4yUnnbQ35kLhGBRghMRCmzob5eKmX6DolrulKX65dnd07iukZxr1H0KBhb4WQWopgE5bIb8gYKva0bBavMagJq4NVsejHlcQS9CfRIKL+5Hkvmw9HpUN6bn1bhlF+M5Yi+RAREoAECfKXzZOiD0PylpXV9EfJdCt0fynvdTEZihc+6i35+lBkkXHKsgK/AFsvuxu8fJKxnNNcaZIuGstWO3ovodoeyd+ejIOqq0BWgHDRaCOW/M+bJYCb0TugNUDbyMmH+30I5YMfPMvHtMfbgbGgSERABERABERABERABERABERABERABERABERABERABERABERABERABERABERABERABERABERABERABERABERABERABERABERABERABERABERABERABERABERABERABERABERABERABERABERABERABERABERABERABERABERABERABERABERABERABERABERABERABERABERABERABERABERABERABERABK4H/AawjV/AH5/meAAAAAElFTkSuQmCC;strokeColor=light-dark(#000000,#000000);container=0;" vertex="1" parent="I5uU8x75WuUFm9Wus-JH-279">
          <mxGeometry x="20" y="111.17000000000002" width="44.55" height="29.83" as="geometry" />
        </mxCell>
        <mxCell id="I5uU8x75WuUFm9Wus-JH-227" value="" style="shape=image;verticalLabelPosition=bottom;labelBackgroundColor=default;verticalAlign=top;aspect=fixed;imageAspect=0;image=data:image/png,iVBORw0KGgoAAAANSUhEUgAAAPgAAACmCAYAAAD3VUKMAAAAAXNSR0IArs4c6QAAAIRlWElmTU0AKgAAAAgABQESAAMAAAABAAEAAAEaAAUAAAABAAAASgEbAAUAAAABAAAAUgEoAAMAAAABAAIAAIdpAAQAAAABAAAAWgAAAAAAAACQAAAAAQAAAJAAAAABAAOgAQADAAAAAQABAACgAgAEAAAAAQAAAPigAwAEAAAAAQAAAKYAAAAAlpO+qwAAAAlwSFlzAAAWJQAAFiUBSVIk8AAAEzVJREFUeAHtnQfUHUUZhhPpBAxdMARCEmIQ1NAFQgIeaQcVDahHpAUNR+lF4WBEDL1KUVGqNAEjHEAQ6SEUjyAQSCR0DEloUhIINRR9X/0Xh2Vn5pu9u7f89/3Oef+7d+abb2ae3dkyu3v/Pn1kIiACIiACIiACIiACIiACIiACIiACIiACIiACIiACIiACIiACIiACIiACIiACIiACIiACIiACIiACIiACIiACIiACIiACIiACIiACIiACIiACIiACIiACIiACIiACIiACIiACIiACIiACIiACIiACIiACIiACIiACIiACIiACIiACIiACIiACIiACIiACIiACIiACIiACIiACXUSgbxf1tZGufgKFB0KDoSHQ4tAs6KkezcOnTAREoMMIrI/2ngO9Dv07IA70sRB3BDIREIE2JzAG7bsPCg3qorx/oMzINu+bmicCXUtgAHp+LVQ0eK1pc1B+ECQTARFoIwJboS0vQtaBHPK7B3EWbqO+qSki0NUExqP3H0ChQZuad1hXE1XnRaANCCyENpwHpQ5ei/8TbdA/NUEEupZAP/T8RsgyWMv6rNe1dNVxEWghgf6o+04oNHDfQf7FEK/NB0GrQptDl0HW0/mT4CsTARFoIoFFUNe9UGhwX498zqj7bDtkvA+FYjDvMV8ApYuACNRDgAOc96uLBuebSN/TWC0n5opiuGncCfCpN5kIiEATCayMuvioqTsYX8D3DRPawIFrua2m6/AEqHIVgaoIrIlAr0Ac5A9Bg6BUOxIF3J1E0fIOqUHlLwIiUA2BTRGGz5pz0q2MbYBCRYPaTdu3TGCVEQERaD2BBdCEuZA7oPPLx7W+mWpBtxLQ20+NrXlOot0VCbFsJF/ZIlAbAQ3wxtE+HAmxZCRf2SJQGwEN8MbRPhIJoQEeAaTs+ghogDfO9tFIiCUi+coWgdoIaIA3jnZmJARfaJGJQEsIaIA3jp0Pu4RswVCm8kSgTgIa4I3T5eOtlM80wH1klF47AQ3wahCHjuIa4NUwVpQSBDTAS0ArKPJyQZqSRKDlBDTAq1kFoVN0vjsuE4GWENAArwY7fxzCZ3zaTSYCLSGgAV4N9rcDYXQED8BRVr0ENMCr4Rs6gr9XTRWKIgLpBDTA05kVlViuKLEn7d1AnrJEoFYCGuCN490NIUYFwugIHoCjLBFoZwKD0bjXoPw74O73G9q5A2pb7yagI3j59csfe7gIir0tplP08oxVskECGuDlAf4ERTc2FJ9v8JGLCIhAGxHgb7HxyOyeivuWL22jdqspXUZAR/D0Fd4PRfgfT6zPmOsIns5YJSoioAGeDvIUFFk9oVjoHnlCGLmKQDoBDfA0ZvyXRePSivTRETwRmNyrI6ABbme5Ilz5G+qppgGeSkz+lRHQALejPA+uoSfWfJF0iu4jo/TaCWiA2xDvBbdtbK4f89IR/GNIlNAsAhrgcdJrwOXEuJvXQ0dwLxpl1E1AAzxMeGFk/x5aLOwWzA29ShosqEwRaJSABniY4BHIXjvsEs3VAI8ikoMINJ/AaFTJX2PxPaFmTR/b/KarRhH4HwEdwYu3BP474QshC5+3enyLI/XpoyO4j4zSaydg2YBrb0QbVnAG2rSKsV2Hwu+FgK8GeACOskSg2QR2RIXW0+/J8O0LnRUoszXyZCIgAm1AgEftuZBlgL8Ov8E9bZ4YKLNZj48+RKDpBHSK/n/kZHEhxOtvix0Mp6d6HENl9KCLhaZ8RKBmAocgvuXITZ+bIZ6aZ3Y3Fnxl182c9CkCItAaArzXzSfOfIPUTedvsK2aa+YjgbJr5Xz1VQREoIkE+JTadMgdxKHlotdFnw+UT3l3vIndLlUVf4dueWgotCJk/dELuMpaQUArqE+fEwB+DSP86+F3doFvb7sG505vU2gLiD9PtQLEN+mWgfLzNpyU5H9XfSn3ORXfeZfhGahVxrZ+EloaWgpaApoDzYJehXq9udeRvb6zBR3cBmnXFaQXJXGD4On27Fwmd5KhX04dgPxnc2Xa8St/imp36GvQSGhRqAp7EkE40DM9XUXQghgrIW19aIQjXkrld0hI+q/Nw18O9Jk9n1PweTHEdFkvIMBTzeeg0Om4m7erp888Orh++WXW0862LBo3AeK/QM63vY7vM1BP0WUOkpOMA3cj6CiIg7OKtnJ+5TRoGCTrcAJXof3WjeKaQF957zwUhzuAdrTF0Si+BvsGFGp/HXkHNwCER+nfQLwsqKNtjPkB9BeIlymyDiTAI4h14+A1G0//fLYmMkKxeN3XbrYxGvQYFGq3L49Hej7k48u3pG+C8inGs6ADoGmQJX5VPvy3U3tBsg4isDramrKBjo307YvID21QVV3LRpphyl4EXsdD1rfkOLfAI9ku0BDI7cun8X00tDfEOYYQAzePtyPZjhTjRJ0bw7rMU+57oWuh+yB+t5Z1/X6KcrIOIMAJsbshd+WFlm8w9GmLSDz+aEQ7GGeTb4dC/c3yOAiPhnh9bjHOUJ8DZeVDn3+1BMz5hG5D5uvizvsIiDugIuPtvZ2hlJ0Gd4iji4Iprb0IcMXnNwjf93nwXdXQ/DGRmNyptNp4ins/5Ourmz4JfsNLNpjX1m6somVe96eadYBzJxO6nHLr5f+UY1vmQ0XtzKdx9r8d1iWaISsisDESeU2VX3G+73sWBSlI2ykSk7O9rbSBqPwRyNdPN/3YBhvKU+9/Rur6Rok6LAP8lBJxWYTX2C6D0PJ2JetQsZoJcG/9JBRaeW7eZPj2NbZpj0hcPv3VKuuPih+F3L4VLXPW+KCKGrljpD4+NJNqsQF+BQKW3ZFyPd8OFXHJp12Z2nD5N4fA74wrkCv0TWhoQrP2i8ReKCFWla7ccP8UaVu2AY+rsGLWO8dT7+Ml6wkN8IcRk0/eNWLDUJjzDhkP3+fTjVSisvUQ2N6w4twVmnokOzQSf9F6uhWNOiHSrqzPfLCjarsLAbP47ucFJSsKDfDdSsbMF+Nsu9vWomXeVSh7ppCvT98rIMCZ1JehopVVlMYZ9tRT6iMi8fshv9m2LSrkaXdRH900nprWMXF0lqduXs6UMd8An41gVZ0hcefjsvEtf6pMB1pVpjfvjfoC6vnQMka48+G3O8RbIikWOz2sYwCF2scHa34Lsf8h412C70CceKzaHvIE5JG9jHFnVWSnIJFH1SpsujEIL+E6xpq98TUTzIGobIuECo+Cr2/DDIVZOJSJvKqOMJFqPsz+OZZW/vCbf+FwZD3jz24oh9f++R0Hj4jWQZSvfAMkcKI0b0/lExr4/pKhLM8YuGOUtZjAOqjfMmmSnYZNg3/ZgfhrlM3iFH0OQn6z7HOoiEe0ona4aVPh05t37mV4x+ZSyO+mMoFbWaY3nqLzmvcSKHZkzbhzxfHasOypXmyg8JS5WfYrVBRrD9uyP5Q/wjK9m224ofOcsZe1mMDZqN89WsWWeQRuxM5F4VAdfFa9GTYalYTakeVNaUZjOqwOPqDju7WXcePnDzusX72uuTugR+4KiS3zGpTPaDdi56NwqJ6tGwmeUPaGSDuyNo5NiNktrpbthpd8lrmNbmHW9H4OQo2WvXC2ofNzTAWtjJ0xfK+COmIhOOfg9su3/CL8Fo0F67J8vhdvecqRdyZkLSLACTLew/Zt2EXpV1fU1tMj9U6oqJ5QmImRNmT9PzoUpEvzTjWwmwmfZbuUT1t0+2TDSso2cn7yVsfAilp+XKTuixLq4WuXqZNyy6CM5Y4BJxF1ivnRlXE4vrrbRdHyW/DhbTpZiwh8BfVantpyV96+FbY1tpE8bqxrMPxmQA9Cy0FW4x0At2++5T9YA3aBHyfVYmde5DgD4uWPrEUEhqDe1Ovue1CmytuDP0Y836DK0gdE+AxF/iwnTsogv80pl9VX9LkJ/GT/e/iJO90iRm7ajfDRaXkLtxhOjkw1rCh3pfHe74iK2zzO0IYjA3V+CXnPF8SwDHKeclvOXmbAr5uNz0R8C7oFcreHomXyPBaq8iCAcLJUApeiQNEKCqWdllqJwX+UoR285s+f6vF6+xjo/UD58cgL2Q+QGepvlndeKEgvzVsN/doZOhN6AcpY+D45sP8I8WlAWYsJHID6fSvKl86jZP8a2s23i3x1uunvwm8ydAJ0AfQa5Obnl3nNzCNPyC5BZr5c0fedQkF6Qd4+6ANnw3k34Q7oWaiIQ1EaBzbLrQXJ2oDAZmgDB0vRygql7VJj21PnAULtZB4fObWcIs42chhQY9/bIfS/jBzy3N9GuTq3i3Zg01Ft4DWn5XQrvyLvRLm+Nfb0asTO11n2+2HGdg421vmoMV4nu5Ud4Nk64gQnH1neEoqdNXUyp7Zv+yS0MFsp1k9OrH2h5p5tV6Jd+fa/ghjfTmgnry/zMYq+d8MTWI0OcJfbq+B6KGR5aSdhdbXGtZM6wbfERpXAdAbKPFiiXEqRP8OZ1338BZkydhMKjYX4bLzVhhsdbzX6hdzYL04KVmHTqwhSYwy+m3AMtD3EdTIN6lir87S1aigjEZATKCnGPfswiHvlum1TVHAzlHKKx4m28RBPD3kUSbGJcP5mpABjrgiRQyPGS5xNGgnglP0slqt+7ZLbxtI9dXCbXhTiQF0SWh7izDjP4gZCKfYunI+CeNuMy7IaCXwdsd1TKcvyrjW2pyg077XyhY5Y23i0PwTqD5W1KSgYq6eKoyV3WJyMitVlyX8TcVJ2gHCv1AYg2o+gByBLezOfyypthYJ1NIHF0XretrkcuhviYOYtuknQ6dB3oUWgRo331rMN0PfJS4dGbQQC+OKnpt/SaGMqLD8GsTi5Zu3D9yusW6FEIEiAL6RYNszzglFsmQvAbXVoS+gkaA5kqdv1uRJldoNWgNrJyPFayG2rb/kN+PHyQiYCtRNYCTX4NkQ3/ZgaWrIOYr5jrP8D+O1fQxuqDMmzKZ7puNx8y1Phx+t7mQjUSoBHVN9G6KbvV1MrODPv1uNbvrCm+qsOuxQCciLS1w83fe+qK68znuVpqTrrV+xyBDg7bDFe+9dhs41BzzH6tdptLhow3tgITqTKRKBWArwt5B5VfMub1dSKyw31825CJx1AeKpumbjkZccyUEdYJ62AjgDapEbyv7BYrK4j+CqGyvk+NQdDpxjnFdjmmPE+u6X/sThNydcAbwrmyivhTLbF+Nx+HbaaIehNBp92c+EDPRbj/fSOMA3wjlhNH2ukdYDzqFS18eekqJjxqb5OM+sZD5+S6wjTAO+I1fSxRnJSyGK8z1u1rWcI+AR8rBNxhnBNc+E1uMVetji1g48GeDushfQ2vIciTxuK9Tf4pLpsYChwq8GnHV1WNjbKeqQ3hqvPTQO8PrZ1R/6boYLPGHxSXbYyFJhs8LG6cBvlDHdeC1oDJPhZeT2XELOlrhrgLcXfUOV8zj1mn485JObzbayNDGVS3/oLhTwCmXzZJa/7Q4VK5lkGOM+ceAuwI0wDvCNWU2Ej7ypM/WjiqI9+bfjbWEToG4nCAcCXOKqyxTyB+Arolz15ZZMtA/yqssFVTgRSCfC9at9DLkzntXpVL3jw8di3IvWxzguhKu1kBPP18boKK+LOwlePmz66wjoVSgSCBPisubvxFS1PCEawZfKoPclQF+sfZwtp9goNcD5IM8Icye/IV3yfgor4uWlT4KOzXj9H5VRMYCnE42uM7kaYX+a1q+XU09c0vi56YqQOt87hvkAl00MDnPXykoA/KdWI/QKF3T74lkc2UonKikAZAgeikG+DzNL5RNs2JYLzttHthvhZPXVMPsUGOOt+ACrz8Al/XeYgiJcyWR98nxfDRyYCTSfAU8bJkG/DdNNPhd8ihhbyevtn0EuQWz62fI0hdqqLZYCzXdOhHSGecVhsDJyegGJ9Yj7vCvSDOs54bSXrfAKroQt/h5Y1dIVHc15LPgRxUPDac0mIp7m8DbY1tC5UxvjKZdU/MsEBzrMUqz0Jx3Mhfs6EnoP4RN+QHg3G54bQ+pDFyJUTcK9ZnOUjAnURWAOBZ0GWI1JdPpvX0DnrEbyOPl2E/nCeQyYCbUFgFbSCR+U6NvZYTF7H1nEae2QL+vMs6vwqJBOBtiPAa+yDoblQbFBa8+cgFmeah0IneuLytL8u4yXIHtBEKHVewNpH+nHnuA9UZsIOxWQi0DwCfKXzeOhxKGUjz3zfRLmroF0h98i8EL7fAWV+2ecvkdYM46TiOhB/V57vnM+Dsjakfr6PslOhM6E6Li8QtrXWt7XVq/YmERiGeraF1oZW6NHy+OSRik+ncZBwEok7A27wD0C3QRzkRcYYV0CcsLsTuhWaBnGAtcLYj5U84o5uPsQzmkyvYJntvQdi32UiIAIiIAIiIAIiIAIiIAIiIAIiIAIiIAIiIAIiIAIiIAIiIAIiIAIiIAIiIAIiIAIiIAIiIAIiIAIiIAIiIAIiIAIiIAIiIAIiIAIiIAIiIAIiIAIiIAIiIAIiIAIiIAIiIAIiIAIiIAIiIAIiIAIiIAIiIAIiIAIiIAIiIAIiIAIiIAIiIAIiIAIiIAIiIAIiIAIiIAIiIAIiIAIiIAIiIAIiIAIi0BoC/wE/Qxkal7MdEAAAAABJRU5ErkJggg==;container=0;" vertex="1" parent="I5uU8x75WuUFm9Wus-JH-279">
          <mxGeometry x="179" y="116" width="40" height="26.77" as="geometry" />
        </mxCell>
        <mxCell id="I5uU8x75WuUFm9Wus-JH-228" value="" style="shape=image;verticalLabelPosition=bottom;labelBackgroundColor=default;verticalAlign=top;aspect=fixed;imageAspect=0;image=data:image/png,iVBORw0KGgoAAAANSUhEUgAAAPgAAACmCAYAAAD3VUKMAAAAAXNSR0IArs4c6QAAAIRlWElmTU0AKgAAAAgABQESAAMAAAABAAEAAAEaAAUAAAABAAAASgEbAAUAAAABAAAAUgEoAAMAAAABAAIAAIdpAAQAAAABAAAAWgAAAAAAAACQAAAAAQAAAJAAAAABAAOgAQADAAAAAQABAACgAgAEAAAAAQAAAPigAwAEAAAAAQAAAKYAAAAAlpO+qwAAAAlwSFlzAAAWJQAAFiUBSVIk8AAAEo5JREFUeAHtnQmwHUUVhgMYtrAZQJAshBCUFCggm6wBqhAQBURcCpEQLRQhQokliBSyKYIgiwsqhPAIEZQSZRFZJYRFARc0SNgjIayCJGwBQaL/jxkyTKa7T89+3/tP1Xkzt/v06dNf356lp+e+QYMkIiACIiACIiACIiACIiACIiACIiACIiACIiACIiACIiACIiACIiACIiACIiACIiACIiACIiACIiACIiACIiACIiACIiACIiACIiACIiACIiACIiACIiACIiACIiACIiACIiACIiACIiACIiACIiACIiACIiACIiACIiACIiACIiACIiACIiACIiACIiACIiACIiACIiACIiACA4jAEgOorWWauiQKj4COhq4LXR46Bzprob6IrUQERKDHCGyOeCdBX4L+16Mc6BOgPBBIREAEOk5gb8T3Z6hvUOfl/R1ltu142xSeCAxYAsPQ8t9A8wavNW0uyo+CSkRABDpEYBfE8gzUOpB9dnfCz9IdaptCEYEBTeBotH4B1DdoY/OOGdBE1XgR6ACBwYhhMjR28FrsH+pA+xSCCAxYAkPQ8uuglsFa1GazAUtXDReBFgmsjLpvhfoG7r+RPxXKe/NR0LWhO0J/DrVezp8GW4kIiECDBJZBXX+C+gb3NcjnjLpL9kTGG1CfD+Y94HKgdBEQgXoIcIDzeXXe4JyP9ION1XJiLs9HOo0HAa56k4iACDRIYDjq4lLT9GB8Gp+3jIiBA9fyWE334RFQZSoCVRHYAI6eg3KQ3wMdBY2VE1EgfZDI298n1qnsRUAEqiGwHdxwrTkn3YrIFiiUN6jTaYcWcawyIiAC7RNYCiHMg6YHdHb/5PbDVAQDlYDefirX85xEuy3gYtVAvrJFoDYCGuDl0d4bcLFiIF/ZIlAbAQ3w8mjvC7jQAA8AUnZ9BDTAy7O9P+BihUC+skWgNgIa4OXRPhpwwRdaJCLQCgEN8PLYudjFJ+/wZSpPBOokoAFeni6Xt1JdogHuIqP02glogFeD2HcW1wCvhrG8FCCgAV4AWk6Rf+WkKUkEWiegAV5NF/gu0fnuuEQEWiGgAV4Ndv44hEu42k0iAq0Q0ACvBvurHjc6g3vgKKteAhrg1fD1ncH/U00V8iIC8QQ0wOOZ5ZVYLS9xYdrrnjxliUCtBDTAy+M9AC6297jRGdwDR1ki0GUCoxHcC9DsO+Dpz9d2uQGKrX8T0Bm8eP/yxx4uhIbeFtMlenHGKlmSgAZ4cYDfQNGtDcVfM9jIRAREoEME+FtsPDOnL8Vd+xd3KG6FMsAI6Awe3+FDUIT/8cS6xlxn8HjGKlERAQ3weJBnoMh6EcV8z8gj3MhUBOIJaIDHMeO/LDowrsggncEjgcm8OgIa4HaWa8KUv6EeKxrgscRkXxkBDXA7yskw9a1Yc3nSJbqLjNJrJ6ABbkN8CMx2s5kuZqUz+GJIlNAUAQ3wMOmxMDk1bOa00BnciUYZdRPQAPcTXhrZP4Mu5zfz5vpeJfUWVKYIlCWgAe4neAKyN/GbBHM1wIOIZCACzRMYhyr5ayyuFWrW9AnNh64aReD/BHQGz/8m8N8JT4Fa+Lyy0Dbf06BBOoO7yCi9dgKWL3DtQXSwgrMR00hjXEfB7mmPrQa4B46yRKBpAvuiQuvl93TYLgE9x1NmV+RJREAEOkCAZ+15UMsAfwl2oxfGfImnzA4LbbQRgcYJ6BJ9EXKymALl/bdFjoDRrIWGvjJa6GKhKRsRqJnAkfBvOXPT5gYoL80TuQM7rrKbJkbaioAItEOAz7q54sw1SNPp/A22tTNh3ucpu2HGVh9FQAQaJMBVajOh6UHs2897XfQpT/mYd8cbbHahqvg7dKtDx0DXhFp/9AKmkjYIqIMGDfouwI81wr8Gdufm2Pa3e3Ae9LaD7gzlz1O9C8o36YZCs/M2nJTkf1d9NrOdgc98yvA4VNISgfR9ZEshtFrtbqj9t8YInocdL7cfy9jzIOn75dRhyH8iU6aLH/lTVJ+D7gHdFrostAp5GE440BOdXYXTCnzwSmycww/XLhwE1W/aOwD1QjIvNZ+E+i7H03njHY16Z8AH6+myrIrgjofyXyCn21vX/iOoh4OrTfkgKg/9aOYKbQaoussTuAwurF/iKz3V8dm5zw8PAF2U5REUX4N9GeqLv468I1oEshLq5uPNULs0wFvspLJV8wwS6uAkfy5s3+2pcIOAry5+UbZGzA8E4k7an93yTM9FPtn0mM/boHxbMhUVW2LtYr+1xayn6l0P0cZ8QScEWsfLPd8Xpqp72UAYpuxlYHUK1PqWHC9jr4buD10Xmm7LWvg8DjoRyjkGH4N0Hh9HMo42ZD9Umo7Ft68B3kYPlayTE2J3RHTytYb6dg74449GdEF4aXoz1PelTvI4CL8N5f25RVaB0SRoUt63/b3FYQ02o+Ez9H/k0nFrgNfQCXW7PAEVpDvRt/8ibNc2BLR3wCcPKm0LJ/r+AvW1N8mbBrv1CwbMe+vEj2vL+/6mhX1wO9QVU166BnjTvVSyPt538rFHXmfmpR1srC902bek0U9dZiPg+D5oXhuzad8pGQQvvf8RqOtjJesoUpxXI9m2hj5rgBch3VIZ/gdQPo8NdWqSz2e2Sxhj/ULAL1d/tSVcgHM/NGmXa7sANl+tKMh9A/Vx0UyTsgMqs845pPlogDfZSyXrOh/l053n258P2zER9R0W8D04wleVpjxAXRGILeFwYIUVs14+eUh8p7cPVliPxdVQGM1xxJKOK29fA9xCuAM2H4/s4Ngz2VEB/+mZ5yZxHB+IK/lSn1VDULc56r6ghrp8Li91xJG03bfVAPeR7UgeH+XErNDiDHvsJXVo4o5LQJuW3VEhL7t9X2Dm3QytYxLwHEfdvJ1pSnhV4mr/vZ68pIwGeFM9VbAeXipeZ+jIpEP5aIiLVmKFs8KJj7wt74ObFH4xLZelfGQ0rKbAXLctRfgWCZFPAVwr9GYjL/Tkg/3YLwZ4HUfvIh1SR5nD4XTnCMffgu09EfaJaeg59+DEsKHtcahnuKGuY2HzuMGuiMkVKMQnFmnhoJmZTqhpn/1xMZRLcbPCGMZD+dxe0sMEPoDYeUZmh1r0btgVHYg/CtQxCvlNyftQEVefhdo8Azb99eB+uqf930MeJTTTT3794gz+Zmv72Z8haI/1uS87kveqW5Vg8FOU9Q2oDUv4ji06PRBLEudOsY57xH4XxOmae+BBnM/pKZ+HJixcWw3wN1F178+5hs5LdyrPwGXkPBRO+8vuc616EzIOlWTrzvt8VxPBtFAHn68/5WDAq7mNUzFNdNileWmAp4B1ZXcfQ8elO5H3oFyjXUb6UDjtM7u/axnnEWWvDcSRxDUhwmevmHJC9SpP+7+eacjXPLYJJw3wDLS2P45CAK4FFkmnZbd7VxB06IqBl4N1C+ccsm3L+/wM7Np6Ll8nA9esPRncAs0uFz4GaXl80mn9YoBnG15nJ9TpmxNkv4DGzI5eAftfVRAU/zeZT0b6MivKy56hXG75fPpVV2aPpr8fcfMV2Dzha8HjobwvT0voyUfaVvsdIMDZ0fTRN7T/IuxHVBT3yYG6L4yohweo2DPHUJThPWaozZxdtzw+g1nPyHKI9B6oq+2uqyf+0KarTJIe2w89A63XAv0IAnbNnCadld0eWmEjj4WvrP/05weNdY2G3SPQv0FXg1qFq8PS9bn2eYXT3+THaJCrvZd7Gnump1ziTwPcA7CprHVRUex9950oU+WtiWXCZlgAyBjkz4EmX66YQX5TqlxSPm+7Dez6k+yFxuS1k2lPQ31vrZ3tKZv41AAHpDaFK5VmQJMOsWy5umrjioM+0BDDiZ46d0Je3uMdyyDnJbfl6uURT/29mMUD5rNQV59/NNCo0NoF+tUAD0CsO5vLEV0d7Eo/q4agtjfEwXt+znSnhffbJ0F97yofnS6Qs38Q0lxtTadPzinbq0m8+vqdp92cSAzJJBik+eTta4CHKNaY/xVDB2U7jWfJlWuIaQ1jLK/DjivNOMFzAfQFaDbG9GfeM4dmey8K+Ej87Qe7/iJHoiFJu7LbB5HHlYwhOR8G2bLZzxrgIYo15e8Avxws2Q4Jfd6/pnjoNnYeIBTrD+HTMk/wGOxCvpg/DNofZHM04jVoXpt5+7WlsZF9Dh9pvxrgRphVmvGekxMo6Y6w7N+KMlztVJdcDseWOCw2XIRhkdEwsvi73+KsB2w44HiGdrX5uIg29Hn8JP41wCOAVmU6zdAxSQclWx7ZN6oqAIefPQvElcSXbJ+Dj085/Oclf9ZY50/yCvdgWp+nvXcgL+btOJ+vpD/6xQCPgQKGrQrvrTihFSt8JMIZ6TrlKjh/ArpWwUquR7kJUK6Nt8r6RsMbjXY+M7aLk4JVyMwCTj6NMuMd5V5GOucYeCBvQpZDJXzykQjr5XsAkpIEtkX55Ohq3fJyvo6JtbymbIdEy4qydOzPo8xEaJHbh0tQLu0rb38BbHzPg5FtEt7i5PkvkjbWVOMio1HYnQd11fXFRabmvT6Pv6Qe1xmcB+LEJtmOMdcsQyeBvXLAJoBd2/FOb/VkfBJu+UKHK54knWd7zgaXOfjcZainyNkSbt8mnMnn+vUk9jLb+fBDf1ZZCoa+g8uVVkcZuz58DrXDNcBvySnbXyYxM5j0MY8AF+B8GfpLKO8NOZj5iG4a9PvQz0CTHx7AbmHhs/XQl5S3DmVlYzgI1WPN5/PrGDkOxi7f/0Re0auTPo/fpL68Ac5L8yQ/vc2zhalEBIoR4Bcq/QVz7U8u5v5tpXgWXQ/6Iehp0LlQV32u9F+jzAHQmAHJWzLe37p87oG8otKHgi6/SXp20HLO48mccoyxs9JLk2ydhdhCYCsa6+SVQ1l5Aw74eIp6HfQi6B+glkttDpbDoWdCY2QVGE+F8uCSJ5yMXAPKZcJFJLuqMM/Hl5DI8cHbKD5/3xGaN1fCeRSJCFRKgGfU5Ezj2x5Waa2LnHFm3ldvkjdlUZGoPZZLfHR9OyuqZQ0bL9lwfaquGgJNnsHzIn4sLzEnbVJOmiVpI4tRR2w6fQbXAO/ItyQyDE7kWYSPCesQS/3PouJb66i8Yz41wDvWIf0hHK7HtkgV9+B59YzMS8yk8X59QSatP37s9ADnJIKk9wjMNYZc1xl8HUP91xtsXCZcGcaJtLpkazjm5JlPpiHT8vt1A+EqxcdJeTUQ4E86WSafLJfSseFZ6x4e67hB+z7UFeKXfUzWYHjVVaV78OpYNulpnrGyOr6kmxnqfgg21ok4gzuZFCWgAV6UXLvluLhitiGE0GWowcViJlsslrJ4Ah+jSTpAQAO8A51QMITbDeXea7CJNdnFUGC6wUYmDRDQAG8Ack1VcJ17SPhPAaqUEXC2lcEhX8jodclbtdZzbdIA77kueyvg297ac+9s784qlDMBpUJf/NmwmVPIe3OFLN97i01zEaumAUngXrTaNxvMe/WYFzx8ELk89pVAfYxlis9JR/KmGtoxtCOxlgpDR6lS+FovHPo5Jr6scUgFUfKsfQ50WYOvXrg8t6z/sLTVgEMmIlCcAN+64k8W+c7iXKxRZrKNB4lTA3Wk618ftl2XGxBgOua8/Q263gjFNzAI8HXMvC9oOo0r2nYrgGM4ytxs8J/UxV+z6QV5GEEmMbu2E3uhIYqx/xPgbdZ0qOuLmk7ne9nLGJDwfvubUL4wki4f2i/6E0qGkCoz2dLYpmmwC00oVhZUXY56vgF1gekxv+sg3j9CVzXEzbP5XdB7oDOhs6B8/XQtKB+D7QrdFFpEjkahk4oUbKAMv+sfhp4H5Y9FWIQvzIyHPmUxlo0I1ElgLJzz8VToLFtn/o51NrCgbz4qPB36ELRI219Duauhh0AtB1CYSUSgHgIj4ZZn5SJf5LJl+EhuSD3NKuX17gp5fKJUJC0U1mOyFqDXWOWj8L0J9Ehole8p8+WWM6C8Nz8NmiccSJzRl4iACDRAgK91ngLljyUWOTvPR7nLoOOh6TPzYHzms+6szx8grYtyO4LKxlr0M+/he0o0ydZT3VU42Peg5O5Qnt25so26OnQl6CvQF6EvQHkwmAH9K/QmKAd5nrD8pVBO2PEHD26EJpfC2JWIgAiIgAiIgAiIgAiIgAiIgAiIgAiIgAiIgAiIgAiIgAiIgAiIgAiIgAiIgAiIgAiIgAiIgAiIgAiIgAiIgAiIgAiIgAiIgAiIgAiIgAiIgAiIgAiIgAiIgAiIgAiIgAiIgAiIgAiIgAiIgAiIgAiIgAiIgAiIgAiIgAiIgAiIgAiIgAiIgAiIgAiIgAiIgAiIgAiIgAiIgAiIgAiIgAiIgAiIgAiIgAiYCPwPpP+6ICJrOoUAAAAASUVORK5CYII=;container=0;" vertex="1" parent="I5uU8x75WuUFm9Wus-JH-279">
          <mxGeometry x="259" y="116" width="44.86" height="30.02" as="geometry" />
        </mxCell>
        <mxCell id="I5uU8x75WuUFm9Wus-JH-238" style="edgeStyle=none;curved=0;rounded=0;orthogonalLoop=1;jettySize=auto;html=1;entryX=0.5;entryY=0;entryDx=0;entryDy=0;fontSize=12;startSize=8;endSize=8;strokeColor=light-dark(#000000,#0000FF);" edge="1" parent="I5uU8x75WuUFm9Wus-JH-280" source="I5uU8x75WuUFm9Wus-JH-217" target="I5uU8x75WuUFm9Wus-JH-230">
          <mxGeometry relative="1" as="geometry">
            <Array as="points">
              <mxPoint x="390" y="226" />
              <mxPoint x="435" y="226" />
            </Array>
          </mxGeometry>
        </mxCell>
        <mxCell id="I5uU8x75WuUFm9Wus-JH-256" value="" style="edgeStyle=elbowEdgeStyle;elbow=vertical;html=1;rounded=0;curved=0;sourcePerimeterSpacing=0;targetPerimeterSpacing=0;startSize=6;endSize=6;fontColor=light-dark(#000000,#FFFFFF);strokeColor=light-dark(#000000,#00CC00);entryX=0.5;entryY=0;entryDx=0;entryDy=0;exitX=0.75;exitY=1;exitDx=0;exitDy=0;" edge="1" parent="I5uU8x75WuUFm9Wus-JH-280" source="I5uU8x75WuUFm9Wus-JH-217" target="I5uU8x75WuUFm9Wus-JH-233">
          <mxGeometry relative="1" as="geometry">
            <mxPoint x="540" y="416" as="sourcePoint" />
            <mxPoint x="550" y="266" as="targetPoint" />
            <Array as="points">
              <mxPoint x="490" y="226" />
            </Array>
          </mxGeometry>
        </mxCell>
        <mxCell id="I5uU8x75WuUFm9Wus-JH-239" style="edgeStyle=none;curved=0;rounded=0;orthogonalLoop=1;jettySize=auto;html=1;entryX=0.5;entryY=0;entryDx=0;entryDy=0;fontSize=12;startSize=8;endSize=8;strokeColor=light-dark(#000000,#0000FF);exitX=0.5;exitY=1;exitDx=0;exitDy=0;" edge="1" parent="I5uU8x75WuUFm9Wus-JH-280" source="I5uU8x75WuUFm9Wus-JH-219" target="I5uU8x75WuUFm9Wus-JH-230">
          <mxGeometry relative="1" as="geometry">
            <mxPoint x="430" y="266" as="sourcePoint" />
            <mxPoint x="475" y="335" as="targetPoint" />
            <Array as="points">
              <mxPoint x="470" y="226" />
              <mxPoint x="435" y="226" />
            </Array>
          </mxGeometry>
        </mxCell>
        <mxCell id="I5uU8x75WuUFm9Wus-JH-257" value="" style="edgeStyle=elbowEdgeStyle;elbow=vertical;html=1;rounded=0;curved=0;sourcePerimeterSpacing=0;targetPerimeterSpacing=0;startSize=6;endSize=6;fontColor=light-dark(#000000,#FFFFFF);strokeColor=light-dark(#000000,#00CC00);entryX=0.5;entryY=0;entryDx=0;entryDy=0;exitX=0.75;exitY=1;exitDx=0;exitDy=0;" edge="1" parent="I5uU8x75WuUFm9Wus-JH-280" source="I5uU8x75WuUFm9Wus-JH-219" target="I5uU8x75WuUFm9Wus-JH-233">
          <mxGeometry relative="1" as="geometry">
            <mxPoint x="530" y="246" as="sourcePoint" />
            <mxPoint x="725" y="315" as="targetPoint" />
            <Array as="points">
              <mxPoint x="540" y="226" />
            </Array>
          </mxGeometry>
        </mxCell>
        <mxCell id="I5uU8x75WuUFm9Wus-JH-240" style="edgeStyle=none;curved=0;rounded=0;orthogonalLoop=1;jettySize=auto;html=1;entryX=0.5;entryY=0;entryDx=0;entryDy=0;fontSize=12;startSize=8;endSize=8;strokeColor=light-dark(#000000,#0000FF);exitX=0.5;exitY=1;exitDx=0;exitDy=0;" edge="1" parent="I5uU8x75WuUFm9Wus-JH-280" source="I5uU8x75WuUFm9Wus-JH-222" target="I5uU8x75WuUFm9Wus-JH-230">
          <mxGeometry relative="1" as="geometry">
            <mxPoint x="535" y="256" as="sourcePoint" />
            <mxPoint x="500" y="325" as="targetPoint" />
            <Array as="points">
              <mxPoint x="550" y="226" />
              <mxPoint x="435" y="226" />
            </Array>
          </mxGeometry>
        </mxCell>
        <mxCell id="I5uU8x75WuUFm9Wus-JH-258" value="" style="edgeStyle=elbowEdgeStyle;elbow=vertical;html=1;rounded=0;curved=0;sourcePerimeterSpacing=0;targetPerimeterSpacing=0;startSize=6;endSize=6;fontColor=light-dark(#000000,#FFFFFF);strokeColor=light-dark(#000000,#00CC00);entryX=0.5;entryY=0;entryDx=0;entryDy=0;exitX=0.75;exitY=1;exitDx=0;exitDy=0;" edge="1" parent="I5uU8x75WuUFm9Wus-JH-280" source="I5uU8x75WuUFm9Wus-JH-222" target="I5uU8x75WuUFm9Wus-JH-233">
          <mxGeometry relative="1" as="geometry">
            <mxPoint x="530" y="226" as="sourcePoint" />
            <mxPoint x="645" y="295" as="targetPoint" />
            <Array as="points">
              <mxPoint x="580" y="226" />
            </Array>
          </mxGeometry>
        </mxCell>
        <mxCell id="I5uU8x75WuUFm9Wus-JH-241" style="edgeStyle=none;curved=0;rounded=0;orthogonalLoop=1;jettySize=auto;html=1;entryX=0.5;entryY=0;entryDx=0;entryDy=0;fontSize=12;startSize=8;endSize=8;strokeColor=light-dark(#000000,#0000FF);exitX=0.5;exitY=1;exitDx=0;exitDy=0;" edge="1" parent="I5uU8x75WuUFm9Wus-JH-280" source="I5uU8x75WuUFm9Wus-JH-224" target="I5uU8x75WuUFm9Wus-JH-230">
          <mxGeometry relative="1" as="geometry">
            <mxPoint x="630" y="216" as="sourcePoint" />
            <mxPoint x="490" y="315" as="targetPoint" />
            <Array as="points">
              <mxPoint x="630" y="226" />
              <mxPoint x="435" y="226" />
            </Array>
          </mxGeometry>
        </mxCell>
        <mxCell id="I5uU8x75WuUFm9Wus-JH-259" value="" style="edgeStyle=elbowEdgeStyle;elbow=vertical;html=1;rounded=0;curved=0;sourcePerimeterSpacing=0;targetPerimeterSpacing=0;startSize=6;endSize=6;fontColor=light-dark(#000000,#FFFFFF);strokeColor=light-dark(#000000,#00CC00);entryX=0.5;entryY=0;entryDx=0;entryDy=0;exitX=0.75;exitY=1;exitDx=0;exitDy=0;" edge="1" parent="I5uU8x75WuUFm9Wus-JH-280" source="I5uU8x75WuUFm9Wus-JH-224" target="I5uU8x75WuUFm9Wus-JH-233">
          <mxGeometry relative="1" as="geometry">
            <mxPoint x="570" y="236" as="sourcePoint" />
            <mxPoint x="605" y="305" as="targetPoint" />
            <Array as="points">
              <mxPoint x="620" y="226" />
            </Array>
          </mxGeometry>
        </mxCell>
        <mxCell id="I5uU8x75WuUFm9Wus-JH-282" value="" style="shape=umlActor;verticalLabelPosition=bottom;verticalAlign=top;html=1;outlineConnect=0;strokeColor=light-dark(#000000,#000000);fontColor=light-dark(#000000,#000000);container=0;" vertex="1" parent="1">
          <mxGeometry x="440" y="280" width="10" height="20" as="geometry" />
        </mxCell>
        <mxCell id="I5uU8x75WuUFm9Wus-JH-284" value="" style="shape=umlActor;verticalLabelPosition=bottom;verticalAlign=top;html=1;outlineConnect=0;strokeColor=light-dark(#000000,#000000);fontColor=light-dark(#000000,#000000);container=0;" vertex="1" parent="1">
          <mxGeometry x="460" y="280" width="10" height="20" as="geometry" />
        </mxCell>
        <mxCell id="I5uU8x75WuUFm9Wus-JH-286" value="" style="shape=umlActor;verticalLabelPosition=bottom;verticalAlign=top;html=1;outlineConnect=0;strokeColor=light-dark(#000000,#000000);fontColor=light-dark(#000000,#000000);container=0;" vertex="1" parent="1">
          <mxGeometry x="600" y="280" width="9.821428571428571" height="20" as="geometry" />
        </mxCell>
        <mxCell id="I5uU8x75WuUFm9Wus-JH-289" value="" style="shape=umlActor;verticalLabelPosition=bottom;verticalAlign=top;html=1;outlineConnect=0;strokeColor=light-dark(#000000,#000000);fontColor=light-dark(#000000,#000000);container=0;" vertex="1" parent="1">
          <mxGeometry x="620" y="280" width="9.821428571428571" height="20" as="geometry" />
        </mxCell>
      </root>
    </mxGraphModel>
  </diagram>
</mxfile>
